<svg width="32" height="28" viewBox="0 0 32 28" fill="none" xmlns="http://www.w3.org/2000/svg">
<path d="M24.9055 0.217248C20.002 -0.812973 17.0617 2.08281 16 3.41932C14.9328 2.08281 11.998 -0.812973 7.09441 0.217248C3.31677 1.00804 0.488487 4.39394 0.0510287 8.63729C-0.226438 11.3549 0.0777079 20.7885 15.7865 27.9554C15.8559 27.9889 15.9253 28 16 28C16.0747 28 16.144 27.9889 16.2134 27.9554C31.9223 20.7885 32.2266 11.3549 31.9489 8.63729C31.5114 4.39394 28.6834 1.00811 24.9055 0.217248ZM20.2311 14.1391L19.1639 12.0285L17.1363 17.798C17.0563 18.0152 16.8588 18.1599 16.6347 18.1599C16.4106 18.1599 16.2132 18.0207 16.1331 17.8035L13.3958 10.3693L11.4536 14.273C11.3628 14.4568 11.1814 14.5737 10.9787 14.5737H5.09843C4.80495 14.5737 4.56484 14.3231 4.56484 14.0168C4.56484 13.7105 4.80495 13.46 5.09843 13.46H10.6532L12.9957 8.7597C13.0917 8.56479 13.2892 8.44784 13.4973 8.45898C13.7054 8.47012 13.8921 8.60934 13.9668 8.81538L16.6241 16.0215L18.5771 10.4752C18.6464 10.2691 18.8278 10.1243 19.0413 10.1132C19.244 10.0965 19.4468 10.2134 19.5482 10.4083L21.0262 13.3208H26.901C27.1945 13.3208 27.4346 13.5714 27.4346 13.8777C27.4346 14.184 27.1945 14.4346 26.901 14.4346H20.7059C20.5031 14.4346 20.3217 14.3177 20.231 14.1395L20.2311 14.1391Z" fill="#613CF2"/>
</svg>
