<svg width="16" height="16" viewBox="0 0 16 16" fill="none" xmlns="http://www.w3.org/2000/svg">
<path d="M3.96967 8.5303C4.26256 8.8232 4.73744 8.8232 5.03033 8.5303C5.32322 8.2374 5.32322 7.7626 5.03033 7.4697L3.96967 8.5303ZM1.53033 3.96967C1.23744 3.67678 0.76256 3.67678 0.46967 3.96967C0.17678 4.26256 0.17678 4.73744 0.46967 5.03033L1.53033 3.96967ZM1 3.75C0.58579 3.75 0.25 4.08579 0.25 4.5C0.25 4.91421 0.58579 5.25 1 5.25V3.75ZM15 5.25C15.4142 5.25 15.75 4.91421 15.75 4.5C15.75 4.08579 15.4142 3.75 15 3.75V5.25ZM0.46967 3.96967C0.17678 4.26256 0.17678 4.73744 0.46967 5.03033C0.76256 5.32322 1.23744 5.32322 1.53033 5.03033L0.46967 3.96967ZM5.03033 1.53033C5.32322 1.23744 5.32322 0.762558 5.03033 0.469668C4.73744 0.176777 4.26256 0.176777 3.96967 0.469668L5.03033 1.53033ZM12.0303 7.4697C11.7374 7.1768 11.2626 7.1768 10.9697 7.4697C10.6768 7.7626 10.6768 8.2374 10.9697 8.5303L12.0303 7.4697ZM14.4697 12.0303C14.7626 12.3232 15.2374 12.3232 15.5303 12.0303C15.8232 11.7374 15.8232 11.2626 15.5303 10.9697L14.4697 12.0303ZM15 12.25C15.4142 12.25 15.75 11.9142 15.75 11.5C15.75 11.0858 15.4142 10.75 15 10.75V12.25ZM1 10.75C0.58579 10.75 0.25 11.0858 0.25 11.5C0.25 11.9142 0.58579 12.25 1 12.25V10.75ZM15.5303 12.0303C15.8232 11.7374 15.8232 11.2626 15.5303 10.9697C15.2374 10.6768 14.7626 10.6768 14.4697 10.9697L15.5303 12.0303ZM10.9697 14.4697C10.6768 14.7626 10.6768 15.2374 10.9697 15.5303C11.2626 15.8232 11.7374 15.8232 12.0303 15.5303L10.9697 14.4697ZM5.03033 7.4697L1.53033 3.96967L0.46967 5.03033L3.96967 8.5303L5.03033 7.4697ZM1 5.25H15V3.75H1V5.25ZM1.53033 5.03033L5.03033 1.53033L3.96967 0.469668L0.46967 3.96967L1.53033 5.03033ZM10.9697 8.5303L14.4697 12.0303L15.5303 10.9697L12.0303 7.4697L10.9697 8.5303ZM15 10.75H1V12.25H15V10.75ZM14.4697 10.9697L10.9697 14.4697L12.0303 15.5303L15.5303 12.0303L14.4697 10.9697Z" fill="#4B4B4B"/>
</svg>
