<svg width="16" height="16" viewBox="0 0 16 16" fill="none" xmlns="http://www.w3.org/2000/svg">
<circle cx="8" cy="8" r="8" fill="currentColor"/>
<path d="M5.12416 10.7764C4.95861 10.9419 4.95861 11.2103 5.12416 11.3759C5.28971 11.5414 5.55812 11.5414 5.72367 11.3759L5.12416 10.7764ZM8.54976 8.54976C8.71531 8.3842 8.71531 8.11584 8.54976 7.95028C8.3842 7.78473 8.11584 7.78473 7.95028 7.95028L8.54976 8.54976ZM7.95028 7.95028C7.78473 8.11584 7.78473 8.3842 7.95028 8.54976C8.11584 8.71531 8.3842 8.71531 8.54976 8.54976L7.95028 7.95028ZM11.3759 5.72367C11.5414 5.55812 11.5414 5.28971 11.3759 5.12416C11.2103 4.95861 10.9419 4.95861 10.7764 5.12416L11.3759 5.72367ZM8.54976 7.95028C8.3842 7.78473 8.11584 7.78473 7.95028 7.95028C7.78473 8.11584 7.78473 8.3842 7.95028 8.54976L8.54976 7.95028ZM10.7764 11.3759C10.9419 11.5414 11.2103 11.5414 11.3759 11.3759C11.5414 11.2103 11.5414 10.9419 11.3759 10.7764L10.7764 11.3759ZM7.95028 8.54976C8.11584 8.71531 8.3842 8.71531 8.54976 8.54976C8.71531 8.3842 8.71531 8.11584 8.54976 7.95028L7.95028 8.54976ZM5.72367 5.12416C5.55812 4.95861 5.28971 4.95861 5.12416 5.12416C4.95861 5.28971 4.95861 5.55812 5.12416 5.72367L5.72367 5.12416ZM5.72367 11.3759L8.54976 8.54976L7.95028 7.95028L5.12416 10.7764L5.72367 11.3759ZM8.54976 8.54976L11.3759 5.72367L10.7764 5.12416L7.95028 7.95028L8.54976 8.54976ZM7.95028 8.54976L10.7764 11.3759L11.3759 10.7764L8.54976 7.95028L7.95028 8.54976ZM8.54976 7.95028L5.72367 5.12416L5.12416 5.72367L7.95028 8.54976L8.54976 7.95028Z" fill="white"/>
</svg>
