<svg width="31" height="31" viewBox="0 0 31 31" fill="none" xmlns="http://www.w3.org/2000/svg">
<path d="M17.9743 17.965C17.4515 16.3345 17.324 14.603 17.6023 12.9134C17.6139 12.8485 17.6257 12.7836 17.6379 12.7187C18.2483 9.57491 18.2441 6.34261 17.6256 3.20036C17.4183 2.17608 17.1435 1.16663 16.803 0.178612L16.7929 0.149369C16.7737 0.0957866 16.7349 0.0514548 16.6844 0.025271C16.6338 -0.000912832 16.5752 -0.0070111 16.5204 0.00820012C16.4655 0.0234113 16.4185 0.0588065 16.3886 0.107282C16.3588 0.155757 16.3484 0.213725 16.3595 0.269551L16.3645 0.295264C16.5513 1.29316 16.6719 2.30232 16.7255 3.31613C16.8728 6.30588 16.4394 9.29585 15.4494 12.1208C15.2041 12.8318 14.9899 13.5503 14.8069 14.2763C14.5335 15.3618 14.152 16.4173 13.6682 17.4268C13.405 17.9916 13.2708 18.608 13.2755 19.2311C13.2755 21.0633 14.3687 22.5486 15.7172 22.5486C17.0658 22.5486 18.159 21.0633 18.159 19.2311C18.1602 18.8023 18.098 18.3756 17.9743 17.965Z" fill="#613CF2"/>
<path d="M7.24228 12.6789C7.11363 12.6882 6.9881 12.6975 6.86097 12.7068C6.35102 12.7456 5.86278 12.7828 5.38072 12.7998C5.21271 10.6063 5.34675 8.40017 5.77907 6.24317C5.98662 5.21863 6.26157 4.20891 6.60214 3.22059C6.60522 3.21129 6.60834 3.20199 6.61144 3.19114C6.6308 3.13755 6.66969 3.09325 6.72034 3.06713C6.77098 3.04101 6.82962 3.03499 6.88451 3.05028C6.9394 3.06557 6.98649 3.10104 7.01633 3.14959C7.04617 3.19813 7.05656 3.25616 7.04543 3.31205C7.04388 3.32135 7.04232 3.3291 7.04077 3.33685C6.85377 4.33477 6.73313 5.34399 6.67965 6.35787C6.57023 8.48084 6.75962 10.6086 7.24228 12.6789Z" fill="#613CF2"/>
<path d="M25.5534 12.561C25.0698 12.5021 24.5816 12.468 24.0933 12.4572C23.9275 10.742 24.0147 9.01172 24.3521 7.32189C24.5022 6.57902 24.701 5.84685 24.9473 5.13013C24.9509 5.12326 24.9535 5.11597 24.9551 5.10843C24.9693 5.06969 24.9976 5.03774 25.0343 5.01895C25.0711 5.00016 25.1136 4.99592 25.1533 5.00708C25.193 5.01823 25.2271 5.04396 25.2487 5.07913C25.2702 5.1143 25.2778 5.15631 25.2698 5.19679C25.268 5.20284 25.2669 5.20908 25.2667 5.21539C24.8076 7.65426 24.9056 10.1654 25.5534 12.561Z" fill="#613CF2"/>
<path d="M31 14.9413V18.5274C30.9999 18.7235 30.9267 18.9126 30.7947 19.0577C30.6628 19.2028 30.4815 19.2935 30.2862 19.3121L26.894 19.6351C26.2359 19.6974 25.5729 19.6831 24.9182 19.5925C23.6573 19.4186 22.3754 19.4725 21.1336 19.7517C20.9114 23.0385 18.6142 25.5422 15.7166 25.5422C12.9247 25.5422 10.6873 23.2165 10.3312 20.1062L9.39217 20.2512C8.35247 20.4116 7.29204 20.378 6.2646 20.1519C5.45675 19.9752 4.62383 19.9443 3.80509 20.0605L0.899675 20.4749C0.788148 20.4894 0.674812 20.4802 0.56712 20.4477C0.459427 20.4153 0.359816 20.3605 0.274836 20.2868C0.189856 20.2131 0.121432 20.1223 0.0740635 20.0203C0.0266947 19.9183 0.00145363 19.8074 0 19.6949V14.9413C0.000235117 14.8265 0.0254736 14.7132 0.0739579 14.6092C0.122442 14.5052 0.193008 14.4131 0.280742 14.3391C0.368475 14.2652 0.47127 14.2113 0.581968 14.1811C0.692666 14.1509 0.808608 14.1453 0.921722 14.1645L2.00416 14.3504C2.98629 14.5197 3.98165 14.6004 4.97822 14.5915C6.66358 14.5769 8.30997 14.2844 10.0019 14.4071L12.1589 14.5599C12.285 14.5635 12.4085 14.5966 12.5194 14.6567C12.6303 14.7168 12.7254 14.8022 12.7972 14.9059C12.869 15.0096 12.9154 15.1287 12.9326 15.2536C12.9498 15.3786 12.9374 15.5058 12.8963 15.6251C12.5574 16.3421 12.2663 17.0808 12.025 17.8363C11.8198 18.631 11.7918 19.4612 11.9429 20.268C12.094 21.0747 12.4205 21.8385 12.8994 22.5051C13.2272 22.9466 13.6513 23.3077 14.1394 23.5609C14.6275 23.8141 15.1669 23.9528 15.7167 23.9665C17.8815 23.9665 19.5769 21.8867 19.5769 19.2317C19.5769 17.9471 19.0166 16.7038 18.9072 15.4155C18.8926 15.2281 18.945 15.0415 19.0551 14.8891C19.1265 14.7933 19.2179 14.7142 19.323 14.6574C19.4281 14.6005 19.5443 14.5673 19.6635 14.5599L22.5091 14.2921C23.5277 14.1972 24.5539 14.2199 25.5673 14.3598C26.6349 14.5072 27.718 14.504 28.7847 14.3504L30.1003 14.1613C30.2121 14.1454 30.326 14.1536 30.4342 14.1855C30.5425 14.2174 30.6427 14.2722 30.728 14.3461C30.8133 14.4201 30.8817 14.5115 30.9286 14.6141C30.9756 14.7168 30.9999 14.8284 31 14.9413Z" fill="#613CF2"/>
<path d="M30.459 21.0859L27.063 21.4099C26.2664 21.4849 25.4638 21.4672 24.6713 21.3572C24.0184 21.2683 23.3577 21.2522 22.7013 21.3091C21.8953 24.8231 19.0882 27.3248 15.717 27.3248C12.6015 27.3248 9.96651 25.2106 8.94814 22.0981C7.91956 22.1837 6.88396 22.1142 5.87604 21.892C5.28039 21.7617 4.66629 21.7386 4.06254 21.8237L1.12065 22.2438C0.922025 22.2688 0.721149 22.2702 0.522188 22.2481C0.456142 22.2412 0.389378 22.2482 0.326243 22.2688C0.263109 22.2894 0.20502 22.3231 0.155758 22.3676C0.106497 22.4122 0.0671677 22.4666 0.0403318 22.5273C0.0134958 22.5881 -0.00024537 22.6538 3.31615e-06 22.7202V27.6671C3.31615e-06 28.5511 0.351132 29.3988 0.976144 30.0238C1.60116 30.6488 2.44886 31 3.33276 31H27.6672C28.1049 31 28.5383 30.9138 28.9426 30.7463C29.347 30.5788 29.7144 30.3333 30.0238 30.0238C30.3333 29.7143 30.5788 29.3469 30.7463 28.9426C30.9138 28.5382 31 28.1048 31 27.6671V21.5569C30.9994 21.4896 30.9847 21.4232 30.9567 21.362C30.9287 21.3007 30.8881 21.2461 30.8376 21.2016C30.7871 21.1571 30.7278 21.1237 30.6635 21.1037C30.5993 21.0837 30.5315 21.0774 30.4646 21.0854L30.459 21.0859ZM3.68125 29.36C3.37193 29.36 3.06956 29.2683 2.81237 29.0964C2.55519 28.9246 2.35474 28.6803 2.23637 28.3945C2.118 28.1088 2.08704 27.7943 2.14739 27.4909C2.20773 27.1875 2.35669 26.9089 2.57541 26.6901C2.79413 26.4714 3.0728 26.3225 3.37618 26.2621C3.67955 26.2018 3.99401 26.2327 4.27978 26.3511C4.56556 26.4695 4.80981 26.67 4.98166 26.9271C5.1535 27.1843 5.24523 27.4867 5.24523 27.796C5.24509 28.2108 5.08027 28.6085 4.787 28.9018C4.49372 29.1951 4.096 29.3599 3.68125 29.36ZM6.08375 25.5903C5.8533 25.5905 5.62799 25.5223 5.43632 25.3943C5.24464 25.2664 5.09523 25.0845 5.00697 24.8716C4.91871 24.6587 4.89558 24.4245 4.9405 24.1984C4.98542 23.9724 5.09638 23.7648 5.25933 23.6018C5.42228 23.4389 5.6299 23.3279 5.85593 23.283C6.08195 23.2381 6.31622 23.2612 6.5291 23.3495C6.74197 23.4377 6.92388 23.5871 7.05182 23.7788C7.17975 23.9705 7.24795 24.1958 7.2478 24.4263C7.24766 24.735 7.12497 25.031 6.9067 25.2492C6.68843 25.4675 6.39243 25.5902 6.08375 25.5903ZM9.49375 28.9772C9.26015 28.9772 9.0318 28.9079 8.83756 28.7781C8.64333 28.6483 8.49195 28.4639 8.40256 28.248C8.31316 28.0322 8.28977 27.7947 8.33534 27.5656C8.38092 27.3365 8.49341 27.126 8.65859 26.9609C8.82376 26.7957 9.03422 26.6832 9.26333 26.6376C9.49244 26.592 9.72992 26.6154 9.94573 26.7048C10.1615 26.7942 10.346 26.9456 10.4758 27.1399C10.6056 27.3341 10.6748 27.5624 10.6748 27.796C10.6749 27.9512 10.6444 28.1048 10.585 28.2481C10.5257 28.3914 10.4387 28.5216 10.329 28.6313C10.2193 28.741 10.0891 28.828 9.94578 28.8873C9.80246 28.9467 9.64886 28.9772 9.49375 28.9772ZM14.3112 29.9785C14.1306 29.9785 13.9541 29.9249 13.8039 29.8246C13.6538 29.7243 13.5368 29.5817 13.4677 29.4149C13.3986 29.2481 13.3805 29.0645 13.4157 28.8874C13.451 28.7103 13.5379 28.5476 13.6656 28.4199C13.7933 28.2923 13.9559 28.2053 14.133 28.1701C14.3101 28.1349 14.4937 28.1529 14.6605 28.222C14.8273 28.2911 14.9699 28.4082 15.0702 28.5583C15.1705 28.7084 15.2241 28.8849 15.2241 29.0655C15.2239 29.3076 15.1277 29.5397 14.9565 29.7109C14.7853 29.8821 14.5532 29.9783 14.3112 29.9785ZM20.77 29.9459C20.5364 29.9459 20.308 29.8767 20.1138 29.7469C19.9196 29.6171 19.7682 29.4326 19.6788 29.2168C19.5894 29.001 19.566 28.7635 19.6116 28.5344C19.6572 28.3053 19.7697 28.0948 19.9348 27.9296C20.1 27.7644 20.3105 27.6519 20.5396 27.6064C20.7687 27.5608 21.0062 27.5842 21.222 27.6736C21.4378 27.763 21.6223 27.9144 21.752 28.1086C21.8818 28.3028 21.9511 28.5312 21.9511 28.7648C21.9511 28.9199 21.9206 29.0735 21.8613 29.2169C21.8019 29.3602 21.7149 29.4904 21.6053 29.6001C21.4956 29.7098 21.3653 29.7968 21.222 29.8561C21.0787 29.9155 20.9251 29.946 20.77 29.9459ZM23.2314 23.6574C23.2314 23.4383 23.2964 23.224 23.4182 23.0417C23.54 22.8595 23.713 22.7174 23.9155 22.6336C24.118 22.5497 24.3409 22.5277 24.5558 22.5705C24.7708 22.6133 24.9683 22.7188 25.1233 22.8738C25.2783 23.0288 25.3838 23.2263 25.4266 23.4413C25.4693 23.6562 25.4474 23.8791 25.3635 24.0816C25.2796 24.2841 25.1376 24.4572 24.9554 24.579C24.7731 24.7007 24.5588 24.7657 24.3397 24.7657C24.1941 24.7658 24.05 24.7371 23.9155 24.6814C23.781 24.6258 23.6588 24.5441 23.5559 24.4412C23.453 24.3383 23.3714 24.2161 23.3157 24.0816C23.26 23.9471 23.2314 23.803 23.2314 23.6574ZM25.4479 29.0655C25.1546 29.0657 24.8678 28.9788 24.6239 28.816C24.38 28.6531 24.1899 28.4216 24.0775 28.1506C23.9652 27.8797 23.9358 27.5815 23.993 27.2938C24.0502 27.0062 24.1914 26.7419 24.3988 26.5345C24.6062 26.3272 24.8704 26.1859 25.1581 26.1288C25.4458 26.0716 25.7439 26.101 26.0148 26.2133C26.2858 26.3256 26.5173 26.5158 26.6802 26.7597C26.843 27.0036 26.9299 27.2904 26.9297 27.5837C26.9294 27.9766 26.7731 28.3533 26.4953 28.6311C26.2175 28.909 25.8408 29.0652 25.4479 29.0655ZM28.5975 25.2788C28.3979 25.2788 28.2028 25.2196 28.0369 25.1087C27.8709 24.9978 27.7416 24.8402 27.6652 24.6559C27.5889 24.4715 27.5689 24.2686 27.6078 24.0728C27.6467 23.8771 27.7428 23.6973 27.884 23.5562C28.0251 23.415 28.2049 23.3189 28.4006 23.28C28.5964 23.2411 28.7993 23.261 28.9836 23.3374C29.168 23.4138 29.3256 23.5431 29.4365 23.7091C29.5474 23.875 29.6066 24.0701 29.6066 24.2697C29.6063 24.5372 29.4999 24.7937 29.3107 24.9829C29.1215 25.1721 28.865 25.2785 28.5975 25.2788Z" fill="#613CF2"/>
</svg>
