<svg width="32" height="36" viewBox="0 0 32 36" fill="none" xmlns="http://www.w3.org/2000/svg">
<path d="M31.8433 10.5924L21.9407 0.165306C21.8402 0.0598776 21.7048 0 21.5632 0H10.3461C7.73552 0 5.61165 2.23678 5.61165 4.98527V14.8507H1.45604C0.653175 14.8507 0 15.5384 0 16.3837V25.1952C0 26.0405 0.653175 26.7282 1.45604 26.7282H5.6113V31.0151C5.61165 33.7632 7.73517 36 10.3461 36H27.2655C29.8761 36 32 33.7632 32 31.0147V10.9907C31.9996 10.8415 31.9435 10.6979 31.8433 10.5924ZM4.80286 23.8056V17.7748C4.80286 17.464 5.04187 17.2124 5.33705 17.2124H7.05827C8.30112 17.2124 9.31298 18.2777 9.31298 19.5862V19.6622C9.31298 20.9715 8.30112 22.036 7.05827 22.036H5.8709V23.8059C5.8709 24.1167 5.63189 24.3683 5.3374 24.3683C5.04187 24.3683 4.80286 24.1163 4.80286 23.8056ZM10.5562 23.8056V17.7748C10.5562 17.464 10.7952 17.2124 11.0897 17.2124H12.8109C14.0544 17.2124 15.0656 18.2777 15.0656 19.5862V21.9945C15.0656 23.303 14.0544 24.3683 12.8109 24.3683H11.0897C10.7955 24.3683 10.5562 24.1163 10.5562 23.8056ZM19.9651 19.8955C20.2603 19.8955 20.4993 20.1471 20.4993 20.4572C20.4993 20.768 20.2603 21.0196 19.9651 21.0196H17.4832V23.8056C17.4832 24.1163 17.2442 24.368 16.9498 24.368C16.6546 24.368 16.4156 24.1163 16.4156 23.8056V17.7748C16.4156 17.464 16.6546 17.2124 16.9498 17.2124H20.3911C20.6856 17.2124 20.9246 17.464 20.9246 17.7748C20.9246 18.0849 20.6856 18.3365 20.3911 18.3365H17.4832V19.8951L19.9651 19.8955ZM30.932 31.0147C30.932 33.1439 29.2872 34.8756 27.2655 34.8756H10.3461C8.32449 34.8756 6.67969 33.1439 6.67969 31.0147V26.7278H24.2704C25.0733 26.7278 25.7264 26.0401 25.7264 25.1949V16.3837C25.7264 15.5384 25.0733 14.8507 24.2704 14.8507H6.67934V4.98527C6.67934 2.85612 8.32414 1.12445 10.3458 1.12445H21.0286V9.86437C21.0286 10.7952 21.7474 11.5527 22.6301 11.5527H30.9316L30.932 31.0147ZM7.05827 20.9116H5.8709V18.3369H7.05827C7.71284 18.3369 8.24494 18.8974 8.24494 19.5862V19.6622C8.24494 20.3514 7.71249 20.9116 7.05827 20.9116ZM12.8109 23.2439H11.6242V18.3369H12.8109C13.4655 18.3369 13.9976 18.8974 13.9976 19.5862V21.9945C13.9979 22.6837 13.4655 23.2439 12.8109 23.2439Z" fill="currentColor"/>
</svg>
