<svg width="38" height="38" viewBox="0 0 38 38" fill="none" xmlns="http://www.w3.org/2000/svg">
<rect width="38" height="38" rx="19" fill="currentColor"/>
<path d="M18.25 11.5H16.75C13 11.5 11.5 13 11.5 16.75V21.25C11.5 25 13 26.5 16.75 26.5H21.25C25 26.5 26.5 25 26.5 21.25V19.75" stroke="white" stroke-width="1.5" stroke-linecap="round" stroke-linejoin="round"/>
<path d="M22.03 12.2649L16.12 18.1749C15.895 18.3999 15.67 18.8424 15.625 19.1649L15.3025 21.4224C15.1825 22.2399 15.76 22.8099 16.5775 22.6974L18.835 22.3749C19.15 22.3299 19.5925 22.1049 19.825 21.8799L25.735 15.9699C26.755 14.9499 27.235 13.7649 25.735 12.2649C24.235 10.7649 23.05 11.2449 22.03 12.2649Z" stroke="white" stroke-width="1.5" stroke-miterlimit="10" stroke-linecap="round" stroke-linejoin="round"/>
<path d="M21.1825 13.1123C21.685 14.9048 23.0875 16.3073 24.8875 16.8173" stroke="white" stroke-width="1.5" stroke-miterlimit="10" stroke-linecap="round" stroke-linejoin="round"/>
</svg>
