<svg width="20" height="21" viewBox="0 0 20 21" fill="none" xmlns="http://www.w3.org/2000/svg">
<g id="Frame">
<path id="Vector" d="M1.66797 5.97266L7.42882 9.2368C9.55264 10.4402 10.45 10.4402 12.5738 9.2368L18.3346 5.97266" stroke="#132A4F" stroke-width="1.5" stroke-linejoin="round"/>
<path id="Vector_2" d="M1.68111 12.2024C1.73559 14.7571 1.76283 16.0343 2.70544 16.9806C3.64804 17.9267 4.95991 17.9597 7.58366 18.0256C9.20072 18.0662 10.8019 18.0662 12.419 18.0256C15.0427 17.9597 16.3546 17.9267 17.2972 16.9806C18.2398 16.0343 18.2671 14.7571 18.3215 12.2024C18.3391 11.381 18.3391 10.5645 18.3215 9.74307C18.2671 7.18845 18.2398 5.91115 17.2972 4.96496C16.3546 4.01876 15.0427 3.98581 12.419 3.91988C10.8019 3.87925 9.20072 3.87925 7.58365 3.91987C4.95991 3.98579 3.64804 4.01875 2.70543 4.96495C1.76282 5.91114 1.73559 7.18845 1.6811 9.74307C1.66359 10.5645 1.66359 11.381 1.68111 12.2024Z" stroke="#132A4F" stroke-width="1.5" stroke-linejoin="round"/>
</g>
</svg>
