<svg width="18" height="18" viewBox="0 0 18 18" fill="none" xmlns="http://www.w3.org/2000/svg">
<path d="M6.03335 0.482719C3.86843 1.24337 1.99606 2.88169 0.942855 4.92959C0.591786 5.63173 0.299229 6.39237 0.182206 7.21153C-0.227374 9.14241 0.0651833 11.2488 0.942855 13.0042C1.52797 14.1744 2.34713 15.1691 3.40033 15.9882C4.33652 16.7489 5.44823 17.334 6.67697 17.6266C8.19827 18.0361 9.77808 18.0361 11.2409 17.6851C12.5866 17.3925 13.8739 16.7489 14.9271 15.7542C16.0388 14.7595 16.7995 13.4723 17.209 12.0095C17.6771 10.4882 17.7356 8.84985 17.4431 7.27005C14.6345 7.27005 11.826 7.27005 9.01743 7.27005C9.01743 8.44027 9.01743 9.6105 9.01743 10.7807C10.6558 10.7807 12.2941 10.7807 13.8739 10.7807C13.6983 11.8924 12.9962 12.9457 12.06 13.5308C11.4749 13.9403 10.7728 14.1744 10.0706 14.2914C9.3685 14.4084 8.60785 14.4084 7.90571 14.2914C7.20358 14.1744 6.50144 13.8233 5.91633 13.4137C4.98014 12.7701 4.21949 11.7754 3.86843 10.6637C3.45885 9.55199 3.45885 8.32325 3.86843 7.15302C4.16098 6.39237 4.57056 5.63172 5.15568 5.04661C5.85781 4.28596 6.794 3.75936 7.8472 3.58383C8.72487 3.40829 9.60254 3.40829 10.4802 3.70085C11.1824 3.93489 11.8845 4.34447 12.4111 4.81256C12.9377 4.28596 13.5228 3.70085 14.0494 3.17425C14.342 2.88169 14.6345 2.58913 14.9271 2.29657C14.1079 1.53593 13.1132 0.892299 12.06 0.482719C10.1291 -0.160906 7.96422 -0.160906 6.03335 0.482719Z" fill="white"/>
<path d="M6.03336 0.48248C7.96424 -0.161146 10.1292 -0.161146 12.06 0.540991C13.1132 0.950571 14.1079 1.53569 14.9271 2.35485C14.6345 2.6474 14.342 2.93996 14.0494 3.23252C13.5228 3.75912 12.9377 4.34423 12.4111 4.87084C11.8845 4.34423 11.1824 3.93465 10.4802 3.75912C9.66107 3.52507 8.72489 3.46656 7.84722 3.6421C6.85253 3.87614 5.91634 4.40275 5.15569 5.10488C4.57058 5.69 4.10249 6.45065 3.86844 7.21129C2.87375 6.45065 1.93757 5.69 0.942871 4.92935C1.99608 2.88145 3.86844 1.24313 6.03336 0.48248Z" fill="#EA4335"/>
<path d="M0.182206 7.21163C0.35774 6.45098 0.591786 5.69034 0.942855 4.92969C1.93755 5.69034 2.87373 6.45098 3.86843 7.21163C3.45885 8.32335 3.45885 9.55209 3.86843 10.7223C2.87373 11.483 1.93755 12.2436 0.942855 13.0043C0.0651833 11.1904 -0.227374 9.14251 0.182206 7.21163Z" fill="#FBBC05"/>
<path d="M8.95892 7.27002C11.7675 7.27002 14.576 7.27002 17.3846 7.27002C17.6771 8.84983 17.6186 10.4881 17.1505 12.0094C16.7409 13.4137 15.9803 14.701 14.8686 15.7542C13.9324 14.9935 12.9962 14.2914 12.0015 13.5307C12.9377 12.8871 13.5813 11.8924 13.8154 10.7807C12.1771 10.7807 10.5387 10.7807 8.95892 10.7807C8.95892 9.61048 8.95892 8.44025 8.95892 7.27002Z" fill="#4285F4"/>
<path d="M0.942871 13.0041C1.93757 12.2435 2.87375 11.4828 3.86844 10.7222C4.21951 11.8339 4.98016 12.8286 5.91634 13.4722C6.50146 13.8818 7.20359 14.1743 7.90573 14.3499C8.60787 14.4669 9.31001 14.4669 10.0707 14.3499C10.7728 14.2329 11.4749 13.9403 12.06 13.5892C12.9962 14.3499 13.9324 15.052 14.9271 15.8127C13.8739 16.7488 12.6452 17.3925 11.2409 17.7435C9.71959 18.0946 8.13978 18.0946 6.67699 17.685C5.50676 17.3925 4.39505 16.8074 3.40035 16.0467C2.40566 15.169 1.52799 14.1158 0.942871 13.0041Z" fill="#34A853"/>
</svg>
