<svg width="24" height="24" viewBox="0 0 24 24" fill="none" xmlns="http://www.w3.org/2000/svg">
<path d="M13.9933 3.19919L13.9936 3.19938L19.7535 7.22931C19.7535 7.22933 19.7536 7.22936 19.7536 7.22938C20.2228 7.55784 20.6671 8.09641 20.9945 8.72359C21.3219 9.3508 21.5102 10.024 21.5102 10.5997V17.3797C21.5102 19.6536 19.6641 21.4997 17.3902 21.4997H6.61023C4.33778 21.4997 2.49023 19.645 2.49023 17.3697V10.4697C2.49023 9.93526 2.66062 9.29618 2.95881 8.69056C3.25686 8.08521 3.6613 7.55657 4.08775 7.22394L4.08786 7.22386L9.09648 3.31493C9.0967 3.31476 9.09692 3.31459 9.09714 3.31442C10.434 2.27913 12.603 2.2251 13.9933 3.19919ZM12.0002 19.2497C12.6864 19.2497 13.2502 18.6858 13.2502 17.9997V14.9997C13.2502 14.3136 12.6864 13.7497 12.0002 13.7497C11.3141 13.7497 10.7502 14.3136 10.7502 14.9997V17.9997C10.7502 18.6858 11.3141 19.2497 12.0002 19.2497Z" fill="#613CF2" stroke="#613CF2"/>
</svg>
