<svg width="36" height="27" viewBox="0 0 36 27" fill="none" xmlns="http://www.w3.org/2000/svg">
<g clip-path="url(#clip0_380_2186)">
<path d="M12 4V26M17 8H9.5C8.57174 8 7.6815 8.36875 7.02513 9.02513C6.36875 9.6815 6 10.5717 6 11.5C6 12.4283 6.36875 13.3185 7.02513 13.9749C7.6815 14.6313 8.57174 15 9.5 15H14.5C15.4283 15 16.3185 15.3687 16.9749 16.0251C17.6313 16.6815 18 17.5717 18 18.5C18 19.4283 17.6313 20.3185 16.9749 20.9749C16.3185 21.6313 15.4283 22 14.5 22H6" stroke="#FF9500" stroke-width="2.5" stroke-linecap="round" stroke-linejoin="round"/>
</g>
<g clip-path="url(#clip1_380_2186)">
<path d="M27.9746 4.14849L21.4647 17.2912M29.778 8.01761L25.2975 5.79831C24.743 5.52363 24.102 5.48049 23.5157 5.67839C22.9294 5.87628 22.4456 6.29899 22.171 6.85353C21.8963 7.40806 21.8531 8.04901 22.051 8.63535C22.2489 9.2217 22.6716 9.70541 23.2262 9.98009L26.2132 11.4596C26.7677 11.7343 27.1904 12.218 27.3883 12.8044C27.5862 13.3907 27.5431 14.0317 27.2684 14.5862C26.9937 15.1407 26.51 15.5634 25.9236 15.7613C25.3373 15.9592 24.6963 15.9161 24.1418 15.6414L19.0639 13.1262" stroke="#FF9500" stroke-width="1.6" stroke-linecap="round" stroke-linejoin="round"/>
</g>
<defs>
<clipPath id="clip0_380_2186">
<rect width="24" height="24" fill="white" transform="translate(0 3)"/>
</clipPath>
<clipPath id="clip1_380_2186">
<rect width="16" height="16" fill="white" transform="translate(21.1018) rotate(26.3505)"/>
</clipPath>
</defs>
</svg>
