<svg width="24" height="25" viewBox="0 0 24 25" fill="none" xmlns="http://www.w3.org/2000/svg">
<g id="Frame">
<path id="Vector" d="M14.491 16.4727H14.5M9.5 16.4727H9.50897" stroke="#132A4F" stroke-width="2" stroke-linecap="round" stroke-linejoin="round"/>
<path id="Vector_2" d="M4.26781 19.8174C4.49269 21.4877 5.87613 22.7962 7.55966 22.8736C8.97627 22.9387 10.4153 22.9727 12 22.9727C13.5847 22.9727 15.0237 22.9387 16.4403 22.8736C18.1239 22.7962 19.5073 21.4877 19.7322 19.8174C19.879 18.7274 20 17.6103 20 16.4727C20 15.3351 19.879 14.218 19.7322 13.128C19.5073 11.4577 18.1239 10.1491 16.4403 10.0717C15.0237 10.0066 13.5847 9.97266 12 9.97266C10.4153 9.97266 8.97627 10.0066 7.55966 10.0717C5.87613 10.1491 4.49269 11.4577 4.26781 13.128C4.12105 14.218 4 15.3351 4 16.4727C4 17.6103 4.12105 18.7274 4.26781 19.8174Z" stroke="#132A4F" stroke-width="1.5"/>
<path id="Vector_3" d="M7.5 9.97266V7.47266C7.5 4.98738 9.51472 2.97266 12 2.97266C14.4853 2.97266 16.5 4.98738 16.5 7.47266V9.97266" stroke="#132A4F" stroke-width="1.5" stroke-linecap="round" stroke-linejoin="round"/>
</g>
</svg>
