<svg width="24" height="25" viewBox="0 0 24 25" fill="none" xmlns="http://www.w3.org/2000/svg">
<path d="M2 14.5C2 10.7288 2 8.84315 3.17157 7.67157C4.34315 6.5 6.22876 6.5 10 6.5H14C17.7712 6.5 19.6569 6.5 20.8284 7.67157C22 8.84315 22 10.7288 22 14.5C22 18.2712 22 20.1569 20.8284 21.3284C19.6569 22.5 17.7712 22.5 14 22.5H10C6.22876 22.5 4.34315 22.5 3.17157 21.3284C2 20.1569 2 18.2712 2 14.5Z" fill="#613CF2" stroke="#613CF2" stroke-width="1.5"/>
<path opacity="0.5" d="M16 6.5C16 4.61438 16 3.67157 15.4142 3.08579C14.8284 2.5 13.8856 2.5 12 2.5C10.1144 2.5 9.17157 2.5 8.58579 3.08579C8 3.67157 8 4.61438 8 6.5" stroke="#613CF2" stroke-width="1.5"/>
<path d="M13.5 14.5H10.5M12 13V16" stroke="white" stroke-width="1.5" stroke-linecap="round"/>
<path opacity="0.5" d="M12 18.5C14.2091 18.5 16 16.7091 16 14.5C16 12.2909 14.2091 10.5 12 10.5C9.79086 10.5 8 12.2909 8 14.5C8 16.7091 9.79086 18.5 12 18.5Z" stroke="white" stroke-width="1.5"/>
</svg>
