<svg width="26" height="26" viewBox="0 0 26 26" fill="none" xmlns="http://www.w3.org/2000/svg">
<path d="M19.5868 10.0397H15.9587V6.4127C15.9587 6.10885 15.7126 5.8627 15.4087 5.8627H10.5887C10.2849 5.8627 10.0387 6.10885 10.0387 6.4127V10.0397H6.41172C6.10788 10.0397 5.86172 10.2859 5.86172 10.5897V15.4097C5.86172 15.7135 6.10788 15.9597 6.41172 15.9597H10.0387V19.5867C10.0387 19.8906 10.2849 20.1367 10.5887 20.1367H15.4087C15.7126 20.1367 15.9587 19.8906 15.9587 19.5867V15.9597H19.5868C19.8906 15.9597 20.1368 15.7135 20.1368 15.4097V10.5897C20.1368 10.2859 19.8906 10.0397 19.5868 10.0397ZM19.0368 14.8597H15.4087C15.1049 14.8597 14.8587 15.1058 14.8587 15.4097V19.0367H11.1387V15.4097C11.1387 15.1058 10.8926 14.8597 10.5887 14.8597H6.96172V11.1397H10.5887C10.8926 11.1397 11.1387 10.8936 11.1387 10.5897V6.9627H14.8587V10.5897C14.8587 10.8936 15.1049 11.1397 15.4087 11.1397H19.0368V14.8597Z" fill="#A8B4BD" stroke="#A8B4BD" stroke-width="0.3"/>
<path d="M13 0.85C6.30007 0.85 0.85 6.30007 0.85 13C0.85 19.6999 6.30007 25.15 13 25.15C19.6999 25.15 25.15 19.6999 25.15 13C25.15 6.30007 19.6999 0.85 13 0.85ZM13 24.05C6.90684 24.05 1.95 19.0932 1.95 13C1.95 6.90684 6.90684 1.95 13 1.95C19.0932 1.95 24.05 6.90684 24.05 13C24.05 19.0932 19.0932 24.05 13 24.05Z" fill="#A8B4BD" stroke="#A8B4BD" stroke-width="0.3"/>
</svg>
