<svg width="24" height="24" viewBox="0 0 24 24" fill="none" xmlns="http://www.w3.org/2000/svg">
<path fill-rule="evenodd" clip-rule="evenodd" d="M12 0C15.1825 0 18.2342 1.26399 20.4847 3.51531C22.736 5.76555 24 8.81719 24 12C24 15.1828 22.736 18.2342 20.4847 20.4847C18.2345 22.736 15.1828 24 12 24C8.81719 24 5.76576 22.736 3.51531 20.4847C1.26401 18.2345 0 15.1828 0 12C0.00105589 8.81746 1.26504 5.76576 3.51531 3.51531C5.76557 1.26485 8.81719 0.0010813 12 0ZM14.5037 14.4762H19.8204C20.3759 14.4751 20.8257 14.0232 20.8257 13.4677V10.5323C20.8257 9.97683 20.3759 9.52488 19.8204 9.52382H14.4761V4.1795C14.475 3.62406 14.0231 3.17421 13.4676 3.17421H10.5322C9.97675 3.17421 9.52479 3.62406 9.52374 4.1795V9.52382H4.17941C3.62398 9.52488 3.17413 9.97683 3.17413 10.5323V13.4677C3.17413 14.0232 3.62398 14.4751 4.17941 14.4762H9.56699L9.53742 19.8205C9.53848 20.3759 9.98938 20.8258 10.5459 20.8258H13.4678C14.0233 20.8247 14.4731 20.3759 14.4763 19.8205L14.5037 14.4762Z" fill="#613CF2"/>
</svg>
