<svg width="22" height="23" viewBox="0 0 22 23" fill="none" xmlns="http://www.w3.org/2000/svg">
<path d="M1 13.5C1 9.7288 1 7.84315 2.17157 6.67157C3.34315 5.5 5.22876 5.5 9 5.5H13C16.7712 5.5 18.6569 5.5 19.8284 6.67157C21 7.84315 21 9.7288 21 13.5C21 17.2712 21 19.1569 19.8284 20.3284C18.6569 21.5 16.7712 21.5 13 21.5H9C5.22876 21.5 3.34315 21.5 2.17157 20.3284C1 19.1569 1 17.2712 1 13.5Z" stroke="#A8B4BD" stroke-width="1.5"/>
<path opacity="0.5" d="M15 5.5C15 3.61438 15 2.67157 14.4142 2.08579C13.8284 1.5 12.8856 1.5 11 1.5C9.1144 1.5 8.17157 1.5 7.58579 2.08579C7 2.67157 7 3.61438 7 5.5" stroke="#A8B4BD" stroke-width="1.5"/>
<path d="M12.5 13.5H9.5M11 12V15" stroke="#A8B4BD" stroke-width="1.5" stroke-linecap="round"/>
<path opacity="0.5" d="M11 17.5C13.2091 17.5 15 15.7091 15 13.5C15 11.2909 13.2091 9.5 11 9.5C8.79086 9.5 7 11.2909 7 13.5C7 15.7091 8.79086 17.5 11 17.5Z" stroke="#A8B4BD" stroke-width="1.5"/>
</svg>
