<svg width="68" height="68" viewBox="0 0 68 68" fill="none" xmlns="http://www.w3.org/2000/svg">
<path d="M34.0001 39.6665C31.639 39.6665 29.632 38.8401 27.9792 37.1873C26.3265 35.5346 25.5001 33.5276 25.5001 31.1665V14.1665C25.5001 11.8054 26.3265 9.79845 27.9792 8.14567C29.632 6.49289 31.639 5.6665 34.0001 5.6665C36.3612 5.6665 38.3681 6.49289 40.0209 8.14567C41.6737 9.79845 42.5001 11.8054 42.5001 14.1665V31.1665C42.5001 33.5276 41.6737 35.5346 40.0209 37.1873C38.3681 38.8401 36.3612 39.6665 34.0001 39.6665ZM31.1667 59.4998V50.7873C26.2556 50.1262 22.1945 47.9304 18.9834 44.1998C15.7723 40.4693 14.1667 36.1248 14.1667 31.1665H19.8334C19.8334 35.0859 21.2147 38.4269 23.9772 41.1894C26.7397 43.9519 30.0806 45.3332 34.0001 45.3332C37.9195 45.3332 41.2605 43.9519 44.023 41.1894C46.7855 38.4269 48.1667 35.0859 48.1667 31.1665H53.8334C53.8334 36.1248 52.2279 40.4693 49.0167 44.1998C45.8056 47.9304 41.7445 50.1262 36.8334 50.7873V59.4998H31.1667Z" fill="#1D1B20"/>
</svg>
