<svg width="60" height="53" viewBox="0 0 60 53" fill="none" xmlns="http://www.w3.org/2000/svg">
<path d="M35.2941 11.9706L24.7059 5.86468M19.7294 9.09997L30 15.0411L40.2706 9.09997M30 26.8882V15.0294M40.5882 19.7353V10.3235C40.5878 9.91088 40.4789 9.50563 40.2724 9.1484C40.0659 8.79116 39.7691 8.49451 39.4117 8.28821L31.1764 3.58232C30.8188 3.37581 30.413 3.26709 30 3.26709C29.587 3.26709 29.1812 3.37581 28.8235 3.58232L20.5882 8.28821C20.2309 8.49451 19.9341 8.79116 19.7276 9.1484C19.5211 9.50563 19.4122 9.91088 19.4117 10.3235V19.7353C19.4122 20.1479 19.5211 20.5531 19.7276 20.9104C19.9341 21.2676 20.2309 21.5642 20.5882 21.7706L28.8235 26.4764C29.1812 26.683 29.587 26.7917 30 26.7917C30.413 26.7917 30.8188 26.683 31.1764 26.4764L39.4117 21.7706C39.7691 21.5642 40.0659 21.2676 40.2724 20.9104C40.4789 20.5531 40.5878 20.1479 40.5882 19.7353Z" stroke="#FF9500" stroke-width="1.6" stroke-linecap="round" stroke-linejoin="round"/>
<path d="M19.4118 34.912L8.82354 28.8061M3.84707 32.0414L14.1177 37.9826L24.3882 32.0414M14.1177 49.8296V37.9708M24.7059 42.6767V33.2649C24.7055 32.8523 24.5965 32.447 24.3901 32.0898C24.1836 31.7326 23.8868 31.4359 23.5294 31.2296L15.2941 26.5237C14.9364 26.3172 14.5307 26.2085 14.1177 26.2085C13.7046 26.2085 13.2989 26.3172 12.9412 26.5237L4.70589 31.2296C4.34855 31.4359 4.05175 31.7326 3.84526 32.0898C3.63876 32.447 3.52984 32.8523 3.52942 33.2649V42.6767C3.52984 43.0893 3.63876 43.4945 3.84526 43.8518C4.05175 44.209 4.34855 44.5057 4.70589 44.712L12.9412 49.4178C13.2989 49.6244 13.7046 49.7331 14.1177 49.7331C14.5307 49.7331 14.9364 49.6244 15.2941 49.4178L23.5294 44.712C23.8868 44.5057 24.1836 44.209 24.3901 43.8518C24.5965 43.4945 24.7055 43.0893 24.7059 42.6767Z" stroke="#FF9500" stroke-width="1.6" stroke-linecap="round" stroke-linejoin="round"/>
<path d="M51.1764 34.912L40.5882 28.8061M35.6117 32.0414L45.8823 37.9826L56.1529 32.0414M45.8823 49.8296V37.9708M56.4705 42.6767V33.2649C56.4701 32.8523 56.3612 32.447 56.1547 32.0898C55.9482 31.7326 55.6514 31.4359 55.2941 31.2296L47.0588 26.5237C46.7011 26.3172 46.2953 26.2085 45.8823 26.2085C45.4693 26.2085 45.0635 26.3172 44.7058 26.5237L36.4705 31.2296C36.1132 31.4359 35.8164 31.7326 35.6099 32.0898C35.4034 32.447 35.2945 32.8523 35.2941 33.2649V42.6767C35.2945 43.0893 35.4034 43.4945 35.6099 43.8518C35.8164 44.209 36.1132 44.5057 36.4705 44.712L44.7058 49.4178C45.0635 49.6244 45.4693 49.7331 45.8823 49.7331C46.2953 49.7331 46.7011 49.6244 47.0588 49.4178L55.2941 44.712C55.6514 44.5057 55.9482 44.209 56.1547 43.8518C56.3612 43.4945 56.4701 43.0893 56.4705 42.6767Z" stroke="#FF9500" stroke-width="1.6" stroke-linecap="round" stroke-linejoin="round"/>
</svg>
