<svg width="33" height="34" viewBox="0 0 33 34" fill="none" xmlns="http://www.w3.org/2000/svg">
<path d="M5.57262 5.62495C8.34095 5.32451 10.2235 6.65157 10.2545 6.67264C10.5017 6.85224 10.5549 7.19703 10.3753 7.44316C10.1969 7.6915 9.84762 7.74693 9.60261 7.56844C9.47844 7.47863 7.18573 5.89879 3.96285 7.14382C3.02603 7.82897 1.94397 9.03187 1.76881 10.9377C2.02934 11.839 2.41626 12.6029 2.94177 13.216C4.15132 14.6295 5.63027 14.7226 5.64469 14.7226C5.94957 14.7393 6.1846 14.9998 6.16908 15.3047C6.15356 15.6018 5.90966 15.8313 5.61586 15.8313C5.60588 15.8313 5.59591 15.8313 5.58704 15.8302C5.50721 15.8257 3.61584 15.7082 2.09919 13.9366C1.93732 13.7481 1.79209 13.543 1.65129 13.3324C0.81314 14.6228 -1.68246 19.2681 1.79874 24.48C2.93512 25.4589 4.75 26.5753 7.07708 26.5144C7.3742 26.4789 7.63917 26.7427 7.65026 27.0487C7.66023 27.3547 7.42076 27.6108 7.11477 27.6219C7.02275 27.6252 6.92963 27.6263 6.83761 27.6263C5.22561 27.6263 3.85531 27.143 2.74775 26.5199C2.83201 28.1552 3.51827 31.8514 7.95625 32.6342C7.95625 32.6342 12.5771 36.5888 15.9098 31.0355V9.84563C14.2113 11.1328 12.2113 11.6649 12.0927 11.6949C12.0461 11.7082 11.9995 11.7126 11.9541 11.7126C11.7068 11.7126 11.4818 11.5485 11.4186 11.2969C11.3421 11.0009 11.5195 10.6993 11.8155 10.6228C11.8454 10.615 14.3299 9.95317 15.9098 8.38663V1.07612C15.9076 1.07612 8.37975 -3.30642 5.57262 5.62495ZM11.4097 15.7492C11.4164 15.8568 11.4873 17.6096 10.0738 19.5741C10.4585 20.358 11.3232 22.4644 10.8532 24.8514C10.8011 25.1152 10.5694 25.2993 10.311 25.2993C10.2756 25.2993 10.239 25.2948 10.2024 25.2882C9.90195 25.2283 9.70682 24.9378 9.76558 24.6363C10.0982 22.9467 9.63254 21.3879 9.27777 20.5165C8.63696 21.1806 7.81545 21.8425 6.73117 22.45C6.6447 22.4988 6.55157 22.5198 6.45955 22.5198C6.26554 22.5198 6.07706 22.4178 5.97618 22.2371C5.8254 21.9699 5.92074 21.6318 6.18682 21.4821C7.47287 20.7604 8.35425 19.9644 8.96291 19.2016C8.97732 19.1817 8.99284 19.1673 9.00947 19.1484C10.3565 17.43 10.3066 15.9011 10.3022 15.8091C10.2867 15.5053 10.5206 15.2437 10.8255 15.2282C11.1237 15.2171 11.392 15.4444 11.4097 15.7492Z" fill="#613CF2"/>
<path d="M26.4769 22.5721C27.4836 22.8592 29.2907 23.5588 30.6921 25.0555C35.4638 18.6762 31.0191 12.9677 31.0191 12.9677C32.0291 8.3291 28.2397 6.64171 27.6521 6.40889C24.8749 7.64062 24.4326 10.0897 24.4104 10.226C24.3649 10.4976 24.1299 10.6917 23.8627 10.6917C23.835 10.6917 23.8051 10.6894 23.7762 10.685C23.4747 10.6373 23.2685 10.3557 23.315 10.0542C23.3217 10.0132 23.8694 6.87564 27.2707 5.38227C24.406 -3.22759 17.0156 1.07512 17.0156 1.07512V4.81907C17.9491 3.92438 19.2618 3.07182 20.8849 3.07182C21.1908 3.07182 21.4403 3.32127 21.4403 3.62615C21.4403 3.93214 21.192 4.18048 20.886 4.18048C19.1265 4.18048 17.7595 5.52529 17.0156 6.46765V24.2461C17.9092 23.2107 19.1298 22.2494 20.7596 21.8681C21.0689 21.8004 21.356 21.9845 21.427 22.2816C21.4968 22.5798 21.3117 22.877 21.0135 22.9479C19.0822 23.3991 17.7939 24.8736 17.0167 26.1231V31.0345C19.642 35.4104 23.0578 33.886 24.3927 33.0423C22.9148 32.1043 22.1709 30.6032 21.8627 29.7872C21.754 29.5012 21.8982 29.1808 22.1853 29.0722C22.4691 28.9635 22.7906 29.1087 22.9004 29.3948C23.202 30.1941 24.0168 31.7828 25.7242 32.4502C29.8218 31.3017 30.1854 27.4147 30.1898 26.1464C29.0191 24.6796 27.3384 23.969 26.1732 23.6364C25.8794 23.5521 25.7086 23.245 25.7929 22.9512C25.8749 22.6597 26.1787 22.4889 26.4769 22.5721ZM24.6621 16.9556C23.0667 17.4789 21.6576 17.5487 21.539 17.5532C21.5312 17.5543 21.5234 17.5543 21.5168 17.5543C21.2197 17.5543 20.9747 17.3203 20.9636 17.0221C20.9514 16.7172 21.1886 16.4589 21.4946 16.4456C21.5478 16.4434 26.8217 16.1917 28.0645 12.777C28.1699 12.4899 28.4869 12.3436 28.7752 12.4456C29.0634 12.5509 29.212 12.8691 29.1067 13.1562C28.4825 14.8713 27.1067 15.9123 25.6976 16.552C25.9703 17.0864 26.5534 17.9057 27.6211 18.0077C27.926 18.0365 28.1499 18.3082 28.12 18.613C28.0923 18.8991 27.8506 19.113 27.569 19.113C27.5501 19.113 27.5335 19.113 27.5146 19.1108C25.8616 18.9523 25.0213 17.6973 24.6621 16.9556Z" fill="#613CF2"/>
</svg>
