<svg width="32" height="31" viewBox="0 0 32 31" fill="none" xmlns="http://www.w3.org/2000/svg">
<path d="M13 21C12.45 21 11.9792 20.8042 11.5875 20.4125C11.1958 20.0208 11 19.55 11 19V5C11 4.45 11.1958 3.97917 11.5875 3.5875C11.9792 3.19583 12.45 3 13 3H27C27.55 3 28.0208 3.19583 28.4125 3.5875C28.8042 3.97917 29 4.45 29 5V19C29 19.55 28.8042 20.0208 28.4125 20.4125C28.0208 20.8042 27.55 21 27 21H13ZM13 19H27V5H13V19Z" fill="#D0BCFF"/>
<path d="M5 28C4.45 28 3.97917 27.8042 3.5875 27.4125C3.19583 27.0208 3 26.55 3 26V12C3 11.45 3.19583 10.9792 3.5875 10.5875C3.97917 10.1958 4.45 10 5 10H19C19.55 10 20.0208 10.1958 20.4125 10.5875C20.8042 10.9792 21 11.45 21 12V26C21 26.55 20.8042 27.0208 20.4125 27.4125C20.0208 27.8042 19.55 28 19 28H5ZM5 26H19V12H5V26Z" fill="#D0BCFF"/>
</svg>
