<svg width="50" height="55" viewBox="0 0 50 55" fill="none" xmlns="http://www.w3.org/2000/svg">
<path fill-rule="evenodd" clip-rule="evenodd" d="M4.56539 36.2135L0 37.573L5.15065 55L9.71605 53.6404L4.56539 36.2135ZM11.4071 50.5157L11.7498 51.7015L10.4937 52.0967L6.21121 37.2842L7.46726 36.889L7.80509 38.057C7.80937 38.0766 7.81487 38.0956 7.82159 38.1145L11.3839 50.4349C11.3894 50.4618 11.3973 50.4888 11.4071 50.5157ZM15.653 13.7521C15.6652 13.765 15.6774 13.7785 15.6884 13.7925C15.7018 13.8078 15.7153 13.8231 15.7293 13.8384C16.9249 15.1717 18.5664 16.0356 20.4358 16.0356C22.3052 16.0356 23.9474 15.1717 25.1424 13.8384C25.1558 13.8231 25.1692 13.8078 25.1833 13.7925C25.1949 13.7778 25.2065 13.7644 25.2193 13.7509C26.4515 12.3326 27.1901 10.4132 27.1901 8.43509C27.1901 6.35048 26.3758 4.11108 25.0275 2.45478C23.8399 0.995495 22.2405 0 20.4352 0C18.63 0 17.0306 0.994883 15.8429 2.45478C14.4953 4.11169 13.6803 6.3511 13.6803 8.43509C13.6815 10.4145 14.4201 12.3339 15.653 13.7521ZM38.3394 19.8316H41.7538C42.0776 19.8316 42.3397 20.0947 42.3397 20.4183V23.2513H45.1658C45.489 23.2513 45.7517 23.5144 45.7517 23.838V27.2546C45.7517 27.5789 45.4896 27.8414 45.1658 27.8414H42.3397V30.6743C42.3397 30.998 42.0776 31.2611 41.7538 31.2611H38.3394C38.0156 31.2611 37.7535 30.9986 37.7535 30.6743V27.8414H34.9274C34.6043 27.8414 34.3416 27.5789 34.3416 27.2546V23.838C34.3416 23.5144 34.6036 23.2513 34.9274 23.2513H37.7535V20.4183C37.7535 20.0947 38.0156 19.8316 38.3394 19.8316ZM45.8342 19.7496C44.3533 18.2658 42.3067 17.3486 40.0463 17.3486C37.7859 17.3486 35.74 18.2664 34.2585 19.7496C32.7776 21.2327 31.8612 23.2825 31.8612 25.5463C31.8612 27.8102 32.7776 29.8599 34.2585 31.3431C35.7393 32.8262 37.7859 33.744 40.0463 33.744C42.3067 33.744 44.3527 32.8262 45.8342 31.3431C47.3156 29.8599 48.2314 27.8102 48.2314 25.5463C48.2314 23.2825 47.3156 21.2327 45.8342 19.7496ZM30.8428 27.2436H5.62717C5.90514 24.4737 6.93881 21.9278 8.51987 19.8169C10.1797 17.6007 12.4432 15.8624 15.0677 14.8455C16.4557 16.2877 18.319 17.2091 20.4364 17.2091C22.5539 17.2091 24.4172 16.2877 25.8052 14.8455C27.1559 15.3687 28.4095 16.0815 29.533 16.9516C30.6596 17.8235 31.6578 18.855 32.4954 20.0121C31.3609 21.5631 30.6901 23.4758 30.6901 25.5457C30.6901 26.1258 30.7426 26.6936 30.8428 27.2436ZM37.3833 42.9397C37.7028 42.8503 39.0065 42.329 40.4171 41.6658C41.3378 41.2332 42.3159 40.7351 43.1131 40.2511C44.3166 39.5206 45.4456 38.5912 46.4652 37.7511C48.0237 36.4674 49.2901 35.4248 49.7257 35.8078C49.7666 35.8439 49.8015 35.8825 49.8314 35.9235C50.1399 36.3512 50 37.1313 49.6145 38.0203C49.1765 39.0311 48.4226 40.1349 47.6034 41.0686C47.0474 41.7025 46.4671 42.2507 45.9405 42.6319C45.9197 42.6472 45.9001 42.6631 45.8818 42.6808L45.8812 42.6802C43.4033 45.0224 40.0964 46.9632 36.8243 48.3356C33.124 49.8873 29.4945 50.706 27.1816 50.5481C27.1401 50.5451 27.0991 50.5469 27.0588 50.553C24.7972 50.7794 23.0182 50.2336 21.2661 49.6958C18.7002 48.9083 16.1881 48.1368 12.3387 49.5373L9.07031 38.2326C9.9207 37.8086 10.699 37.387 11.4352 36.9893C15.2479 34.9261 17.8639 33.5103 22.5533 36.3842C22.5734 36.397 22.5948 36.4087 22.6168 36.4197C22.7818 36.4974 23.0451 36.6565 23.3719 36.8541C24.9976 37.8361 28.0998 39.709 31.9584 39.3089L31.9724 39.3083C32.7764 39.2471 33.65 39.1002 34.512 38.9564C36.5989 38.6065 38.6052 38.2712 38.7835 39.2391C38.9277 40.0205 38.2594 40.8336 37.2886 41.5587C35.6996 42.7457 33.3757 43.6268 32.1142 43.8984C31.4354 43.9951 30.0199 43.6671 28.693 43.3594C27.5414 43.0926 26.4509 42.8399 25.7881 42.8626L21.07 42.7065C20.748 42.6967 20.4786 42.9501 20.4682 43.2725C20.4578 43.595 20.7114 43.8648 21.0333 43.8752L25.7728 44.0318C25.7869 44.0324 25.8003 44.0324 25.8144 44.0318C26.3171 44.0104 27.3453 44.2484 28.4328 44.5005C29.8684 44.8334 31.4 45.1882 32.2907 45.0567C32.3139 45.0536 32.3365 45.0487 32.3585 45.0426C33.5675 44.7826 35.666 44.0104 37.3283 42.9531C37.3467 42.9488 37.3656 42.9445 37.3833 42.9397Z" fill="currentColor"/>
</svg>
