<svg width="19" height="19" viewBox="0 0 19 19" fill="none" xmlns="http://www.w3.org/2000/svg">
<path d="M13.1106 13.0001C12.4103 13.4098 11.7709 13.5804 11.1906 13.4998C10.9206 13.4595 10.7002 13.3798 10.4509 13.2898C10.0609 13.1501 9.63052 12.9898 8.91049 12.9401C8.52048 12.9101 8.12015 12.9401 7.71045 13.0404C8.06014 12.2407 8.24015 11.44 8.25047 10.6403C8.25047 10.4106 8.23078 10.21 8.20078 10.0206H10.5005C10.7809 10.0206 11.0002 9.80029 11.0002 9.52092C11.0002 9.24059 10.7799 9.02122 10.5005 9.02122H7.97013C7.97013 9.02122 7.97013 9.00153 7.95982 8.99122C7.80981 8.47088 7.65981 7.99087 7.68981 7.29148C7.73012 6.30145 8.54016 5.52142 9.6202 5.52142C10.3599 5.52142 11.0302 5.93112 11.3603 6.59114C11.4803 6.84147 11.7803 6.94083 12.0306 6.81146C12.2809 6.69146 12.3803 6.39145 12.2509 6.14112C11.7512 5.14076 10.7405 4.51074 9.53115 4.51074C8.00109 4.51074 6.76073 5.71078 6.69137 7.24083C6.66137 7.97118 6.79169 8.52056 6.93138 9.01089H5.50165C5.22132 9.01089 5.00195 9.23121 5.00195 9.51059C5.00195 9.79092 5.22227 10.0103 5.50165 10.0103H7.19203C7.23234 10.2006 7.25203 10.4003 7.25203 10.6206C7.24172 11.6303 6.89202 12.6804 6.21231 13.7211C6.082 13.9114 6.112 14.1711 6.262 14.3314C6.42232 14.5011 6.6717 14.5414 6.87234 14.4214C7.55205 14.0417 8.21207 13.8814 8.84209 13.9217C9.41211 13.962 9.75244 14.0914 10.1125 14.2217C10.3928 14.322 10.6825 14.4317 11.0622 14.4814C11.2019 14.5011 11.3519 14.5114 11.4925 14.5114C12.1722 14.5114 12.8922 14.2911 13.6329 13.8514C13.8729 13.7117 13.9526 13.4014 13.8129 13.1614C13.6732 12.9213 13.3629 12.8417 13.1332 12.9813L13.1106 13.0001Z" fill="#613CF2"/>
<path d="M9.5 0C4.26014 0 0 4.26014 0 9.5C0 14.7399 4.26014 19 9.5 19C14.7399 19 19 14.7399 19 9.5C19 4.26014 14.7399 0 9.5 0ZM9.5 18.0006C4.80952 18.0006 0.999394 14.1905 0.999394 9.5C0.999394 4.80952 4.80952 0.999394 9.5 0.999394C14.1905 0.999394 18.0006 4.80952 18.0006 9.5C18.0006 14.1905 14.1905 18.0006 9.5 18.0006Z" fill="#613CF2"/>
</svg>
