<svg width="17" height="21" viewBox="0 0 17 21" fill="none" xmlns="http://www.w3.org/2000/svg">
<path d="M4.25 8.75V7C4.25 4.10375 4.95833 1.75 8.5 1.75C12.0417 1.75 12.75 4.10375 12.75 7V8.75" stroke="#613CF2" stroke-linecap="round" stroke-linejoin="round"/>
<path d="M8.49935 16.1875C9.47735 16.1875 10.2702 15.2081 10.2702 14C10.2702 12.7919 9.47735 11.8125 8.49935 11.8125C7.52134 11.8125 6.72852 12.7919 6.72852 14C6.72852 15.2081 7.52134 16.1875 8.49935 16.1875Z" stroke="#613CF2" stroke-linecap="round" stroke-linejoin="round"/>
<path d="M12.041 19.25H4.95768C2.12435 19.25 1.41602 18.375 1.41602 14.875V13.125C1.41602 9.625 2.12435 8.75 4.95768 8.75H12.041C14.8743 8.75 15.5827 9.625 15.5827 13.125V14.875C15.5827 18.375 14.8743 19.25 12.041 19.25Z" stroke="#613CF2" stroke-linecap="round" stroke-linejoin="round"/>
</svg>
