<svg width="32" height="32" viewBox="0 0 32 32" fill="none" xmlns="http://www.w3.org/2000/svg">
<path fill-rule="evenodd" clip-rule="evenodd" d="M11.0132 16.1709C11.0046 16.2359 11.0076 16.213 11.0132 16.1709V16.1709Z" fill="#613CF2"/>
<path fill-rule="evenodd" clip-rule="evenodd" d="M10.9258 14.8907C10.8529 14.9215 10.7809 14.95 10.7097 14.9763C10.3541 15.1204 9.97434 15.1957 9.5906 15.1982C6.81982 15.1231 6.50527 14.2711 6.23056 13.5275C6.19192 13.4067 6.13972 13.2907 6.07498 13.1817C6.02006 13.0834 6.00391 12.9682 6.02971 12.8587C6.0555 12.7491 6.12137 12.6532 6.21437 12.5897C6.30736 12.5263 6.42075 12.4999 6.53224 12.5157C6.64372 12.5316 6.74523 12.5886 6.81681 12.6754C6.92582 12.8444 7.01247 13.0268 7.07461 13.2181C7.25124 13.6961 7.45342 14.2433 9.61165 14.3022C9.88134 14.2961 10.1475 14.24 10.3967 14.1366C10.6495 14.04 10.8958 13.9271 11.134 13.7986C11.113 13.5474 11.0799 13.2876 11.0382 13.0221C10.9739 12.6176 10.8879 12.1891 10.7845 11.7509C10.6812 11.3126 10.5696 10.8755 10.4418 10.4365C10.314 9.99753 10.1645 9.52887 9.99346 9.0418C9.81007 8.51982 9.6015 7.97229 9.38504 7.47697C9.22934 7.10927 9.04905 6.75246 8.84539 6.40896C8.719 6.18351 8.55196 5.98336 8.35271 5.81863C8.22542 5.72302 8.07417 5.66441 7.91566 5.64926C7.71016 5.63071 7.5031 5.65751 7.30911 5.72775C7.06802 5.81432 6.84346 5.94131 6.64507 6.10328C6.35551 6.34548 6.09112 6.61623 5.85589 6.91142C5.5575 7.27155 5.26287 7.66774 4.94983 8.09697C4.63115 8.53409 4.28955 9.01026 3.9269 9.56567C3.57252 10.1091 3.20273 10.7227 2.82505 11.4399C2.3884 12.2718 1.99565 13.1259 1.64842 13.9988C1.31035 14.8442 1.01941 15.7076 0.776936 16.5851C0.528688 17.4957 0.339022 18.4213 0.209101 19.3561C0.0785913 20.2784 0.00879276 21.2082 0.000155065 22.1396C-0.00295884 22.9759 0.040828 23.8118 0.13131 24.6432C0.217744 25.448 0.330484 26.2043 0.443225 26.9208C0.554086 27.6238 0.668706 28.3005 0.794223 28.9453C0.895103 29.4857 1.02494 30.0204 1.18318 30.5469C1.28539 30.9017 1.43305 31.2417 1.62249 31.5586C1.71504 31.7261 1.8535 31.8636 2.02159 31.9552C2.16449 32.0069 2.31991 32.0132 2.46654 31.9732C2.73286 31.9074 2.99291 31.8185 3.2437 31.7073C3.41318 31.6382 3.54434 31.5838 3.67624 31.5282C4.20236 31.3078 4.77959 31.067 5.35119 30.8898C5.70344 30.7814 6.062 30.6946 6.42485 30.6299C6.77998 30.5657 7.1043 30.5255 7.39968 30.5L7.57556 30.4857C8.05895 30.4856 8.53289 30.3518 8.94497 30.0993C9.30016 29.857 9.62525 29.5734 9.91341 29.2544C10.2675 28.8719 10.5881 28.4598 10.8717 28.0226C11.1649 27.5711 11.4155 27.0934 11.6203 26.5956C11.827 26.0909 11.9873 25.5683 12.0991 25.0345C12.2138 24.4885 12.284 23.934 12.3088 23.3766C12.336 22.9036 12.3123 22.4291 12.2381 21.9612C12.2235 21.8819 12.2069 21.8068 12.1885 21.7359C11.7423 22.1226 11.3512 22.5686 11.0262 23.0615C10.8054 23.4557 10.6243 23.8708 10.4854 24.3007C10.3787 24.597 10.2738 24.8873 10.1445 25.1645C9.92303 25.6153 9.65876 26.0439 9.35535 26.4443C9.28282 26.5442 9.22044 26.632 9.17384 26.7026C9.14318 26.755 9.10222 26.8006 9.05342 26.8366C9.00462 26.8727 8.94901 26.8985 8.88995 26.9125C8.83088 26.9265 8.7696 26.9283 8.70979 26.9179C8.64999 26.9076 8.59292 26.8852 8.54203 26.8521C8.49114 26.8191 8.44749 26.776 8.41372 26.7256C8.37995 26.6752 8.35676 26.6185 8.34556 26.5589C8.33437 26.4993 8.33539 26.438 8.34857 26.3788C8.36174 26.3196 8.38681 26.2637 8.42224 26.2144C8.4756 26.1326 8.54625 26.0342 8.62817 25.9211C8.89817 25.5655 9.13408 25.1853 9.3328 24.7855C9.44554 24.5437 9.54287 24.2741 9.64209 23.9988C9.79961 23.5125 10.0056 23.0433 10.2569 22.5981C10.6895 21.9481 11.2144 21.3643 11.815 20.865C11.768 20.7861 11.7206 20.7099 11.6737 20.6344C11.6173 20.5436 11.5609 20.4534 11.4989 20.3464C11.34 20.0746 11.2081 19.788 11.1051 19.4906C11.0675 19.3809 11.0337 19.2683 11.0044 19.1526C10.7067 19.3186 10.4166 19.4861 10.146 19.6569C9.77296 19.8793 9.42875 20.1468 9.12123 20.4534C8.84907 20.7713 8.62854 21.1299 8.46771 21.5162C8.33987 21.7986 8.19336 22.0722 8.02915 22.3352C7.80149 22.6707 7.55218 22.9909 7.28281 23.2939C7.01277 23.5924 6.76815 23.9128 6.5515 24.2519C6.54548 24.2632 6.53947 24.2741 6.53308 24.2846C6.27926 24.8149 6.15632 25.3982 6.17457 25.9857C6.17457 26.1053 6.12706 26.2199 6.04249 26.3044C5.95791 26.3889 5.84321 26.4364 5.72361 26.4364C5.604 26.4364 5.4893 26.3889 5.40473 26.3044C5.32016 26.2199 5.27265 26.1053 5.27265 25.9857V25.9662C5.27387 25.4558 5.3439 24.9479 5.48084 24.4562C4.87161 24.3941 4.25913 24.5378 3.74126 24.8644C3.6382 24.9242 3.51561 24.9406 3.40045 24.91C3.28529 24.8794 3.187 24.8044 3.1272 24.7014C3.0674 24.5984 3.05098 24.4759 3.08157 24.3609C3.11216 24.2458 3.18724 24.1476 3.29029 24.0878C4.31473 23.4907 4.88144 23.5147 5.90775 23.5816C6.11961 23.28 6.34807 22.9904 6.59208 22.7141C6.83529 22.4405 7.06121 22.1521 7.26853 21.8504C7.4111 21.6185 7.53875 21.3778 7.65072 21.1298C7.84811 20.6594 8.12117 20.2244 8.45906 19.8421C8.81891 19.4784 9.2229 19.1613 9.66163 18.898C10.0348 18.6621 10.4459 18.4316 10.8642 18.2025C10.8548 17.9385 10.8591 17.6741 10.877 17.4105C10.9006 17.035 10.9424 16.6666 10.9875 16.3083L11.0044 16.172C10.8043 16.3663 10.5841 16.5388 10.3475 16.6865C9.91614 16.9349 9.46458 17.1465 8.99759 17.3189C8.64478 17.4523 8.30008 17.6063 7.96526 17.78C7.67702 17.9384 7.41406 18.1389 7.1851 18.3749C6.97307 18.598 6.78618 18.8437 6.62778 19.1075C6.30095 19.6722 6.01826 20.2613 5.78223 20.8695C5.76338 20.9291 5.73233 20.9841 5.69105 21.0311C5.64978 21.078 5.59918 21.1159 5.54248 21.1422C5.48578 21.1686 5.42421 21.1829 5.36168 21.1842C5.29916 21.1855 5.23705 21.1738 5.17929 21.1498C5.12154 21.1258 5.0694 21.0901 5.0262 21.045C4.983 20.9998 4.94967 20.9461 4.92834 20.8874C4.90701 20.8286 4.89814 20.7661 4.90229 20.7037C4.90644 20.6414 4.92353 20.5806 4.95246 20.5252C5.14826 20.0576 5.34405 19.5905 5.57742 19.1402C5.01898 18.9554 4.19635 18.7113 3.64392 19.1188C3.54834 19.1897 3.4285 19.2197 3.31077 19.2022C3.19304 19.1848 3.08706 19.1214 3.01615 19.0258C2.94523 18.9303 2.91519 18.8106 2.93264 18.6929C2.95008 18.5753 3.01358 18.4694 3.10916 18.3985C4.06783 17.6914 5.22116 18.0759 5.94909 18.3189L6.04755 18.3516C6.19556 18.1382 6.3607 17.9373 6.54135 17.7507C6.83144 17.452 7.16442 17.1981 7.52933 16.9974C7.89856 16.8041 8.2792 16.6335 8.66914 16.4863C9.08685 16.3319 9.49119 16.1435 9.87809 15.923C10.1599 15.7449 10.4127 15.5245 10.6274 15.2696C10.7312 15.1509 10.8296 15.0218 10.9258 14.8907Z" fill="#613CF2"/>
<path fill-rule="evenodd" clip-rule="evenodd" d="M20.9922 16.1709C20.9971 16.2122 21.0001 16.2351 20.9922 16.1709V16.1709Z" fill="#613CF2"/>
<path fill-rule="evenodd" clip-rule="evenodd" d="M25.4691 24.284C25.4627 24.2735 25.4567 24.2626 25.4507 24.2513C25.2341 23.9122 24.9896 23.5918 24.7197 23.2933C24.4505 22.9905 24.2013 22.6705 23.9738 22.3354C23.8095 22.0729 23.6629 21.7998 23.5348 21.5178C23.374 21.1316 23.1535 20.773 22.8813 20.4551C22.5738 20.1485 22.2296 19.881 21.8565 19.6586C21.5859 19.4877 21.2958 19.3206 20.9982 19.1542C20.9689 19.2703 20.935 19.3829 20.8975 19.4922C20.7944 19.7882 20.6628 20.0735 20.5044 20.3439C20.442 20.4509 20.386 20.5411 20.3296 20.632C20.2827 20.7071 20.2353 20.7822 20.1883 20.8629C20.789 21.3619 21.3138 21.9456 21.7464 22.5956C21.9977 23.0408 22.2037 23.51 22.3612 23.9963C22.4604 24.2716 22.5574 24.5412 22.6705 24.7831C22.8692 25.1828 23.1051 25.5631 23.3751 25.9187C23.457 26.0313 23.5277 26.1301 23.5811 26.212C23.6165 26.2612 23.6416 26.3171 23.6547 26.3763C23.6679 26.4355 23.6689 26.4968 23.6577 26.5564C23.6465 26.616 23.6233 26.6727 23.5896 26.7231C23.5558 26.7735 23.5122 26.8166 23.4613 26.8496C23.4104 26.8827 23.3533 26.9051 23.2935 26.9155C23.2337 26.9258 23.1724 26.924 23.1133 26.91C23.0543 26.896 22.9987 26.8702 22.9499 26.8342C22.9011 26.7981 22.8601 26.7525 22.8295 26.7001C22.7829 26.6288 22.7205 26.5417 22.6479 26.4418C22.3445 26.0414 22.0803 25.6128 21.8588 25.162C21.7295 24.8848 21.6246 24.5945 21.5179 24.2983C21.379 23.8683 21.1979 23.4532 20.9771 23.059C20.6521 22.5661 20.261 22.1201 19.8148 21.7334C19.7964 21.8055 19.7798 21.8806 19.7652 21.9587C19.691 22.4266 19.6673 22.9011 19.6945 23.3741C19.7193 23.9315 19.7895 24.486 19.9042 25.032C20.0162 25.5658 20.1764 26.0883 20.383 26.5931C20.5878 27.0909 20.8384 27.5686 21.1316 28.0201C21.4149 28.4579 21.7352 28.8707 22.0891 29.2538C22.3765 29.573 22.7009 29.857 23.0553 30.0998C23.4674 30.3524 23.9413 30.4861 24.4247 30.4862L24.6006 30.5005C24.8964 30.5261 25.2203 30.5662 25.5754 30.6305C25.9383 30.6951 26.2968 30.7819 26.6491 30.8903C27.2207 31.0668 27.7972 31.3075 28.324 31.5287C28.4575 31.5843 28.5871 31.6387 28.7566 31.7078C29.0074 31.819 29.2674 31.9079 29.5338 31.9737C29.6804 32.0137 29.8358 32.0074 29.9787 31.9557C30.1468 31.8642 30.2852 31.7266 30.3778 31.5591C30.5672 31.2422 30.7149 30.9022 30.8171 30.5475C30.9754 30.0209 31.1052 29.4863 31.2061 28.9458C31.3331 28.301 31.4462 27.6243 31.5571 26.9213C31.6698 26.2048 31.7825 25.4485 31.8682 24.6422C31.9587 23.8108 32.0025 22.9749 31.9994 22.1386C31.9907 21.2072 31.9209 20.2774 31.7904 19.3551C31.6605 18.4203 31.4708 17.4947 31.2226 16.5841C30.9801 15.7066 30.6892 14.8432 30.3511 13.9978C30.0039 13.1249 29.6111 12.2708 29.1745 11.439C28.7968 10.7217 28.427 10.1081 28.0726 9.56469C27.71 9.00928 27.3684 8.53311 27.0497 8.09599C26.7367 7.66676 26.442 7.26983 26.1436 6.91044C25.9085 6.61517 25.6441 6.34441 25.3545 6.1023C25.1561 5.94034 24.9315 5.81334 24.6904 5.72677C24.4964 5.65653 24.2894 5.62974 24.0839 5.64828C23.9254 5.66343 23.7741 5.72204 23.6468 5.81765C23.4476 5.98232 23.2807 6.18248 23.1545 6.40798C22.9517 6.7505 22.7723 7.10631 22.6175 7.47299C22.401 7.96831 22.1925 8.51584 22.0091 9.03782C21.8381 9.52601 21.6904 9.98679 21.5608 10.4325C21.4311 10.8783 21.3199 11.3094 21.218 11.7469C21.1162 12.1844 21.0301 12.6136 20.9644 13.0181C20.9226 13.2836 20.8892 13.5438 20.8685 13.7947C21.1067 13.9231 21.353 14.036 21.6058 14.1326C21.8544 14.237 22.1202 14.2943 22.3898 14.3016C24.548 14.2427 24.7502 13.6955 24.9268 13.2175C24.9889 13.0262 25.0756 12.8438 25.1846 12.6748C25.2556 12.5863 25.3575 12.5278 25.4698 12.511C25.5822 12.4942 25.6967 12.5204 25.7905 12.5844C25.8843 12.6483 25.9506 12.7453 25.976 12.8559C26.0014 12.9665 25.9841 13.0826 25.9276 13.1811C25.8628 13.2901 25.8106 13.4061 25.772 13.5269C25.4973 14.2705 25.1827 15.1222 22.4119 15.1976C22.0282 15.1951 21.6484 15.1198 21.2928 14.9757C21.2217 14.9507 21.1496 14.9221 21.0767 14.8901C21.1729 15.0223 21.2714 15.1503 21.3751 15.2709C21.5899 15.5258 21.8426 15.7462 22.1245 15.9243C22.5114 16.1448 22.9157 16.3332 23.3334 16.4876C23.7214 16.6347 24.1002 16.8051 24.4676 16.9979C24.8325 17.1987 25.1655 17.4525 25.4556 17.7513C25.6362 17.9378 25.8013 18.1388 25.9494 18.3521L26.0478 18.3194C26.7757 18.0765 27.9291 17.6919 28.8877 18.399C28.9351 18.4341 28.975 18.4782 29.0053 18.5287C29.0356 18.5792 29.0556 18.6352 29.0643 18.6935C29.0729 18.7517 29.07 18.8111 29.0556 18.8682C29.0413 18.9253 29.0159 18.9791 28.9808 19.0264C28.9456 19.0737 28.9016 19.1136 28.851 19.1438C28.8005 19.1741 28.7444 19.1941 28.6861 19.2028C28.6278 19.2114 28.5684 19.2085 28.5113 19.1941C28.4541 19.1798 28.4003 19.1544 28.353 19.1193C27.8006 18.7119 26.9779 18.956 26.4195 19.1407C26.6529 19.5914 26.8487 20.0581 27.0444 20.5257C27.0734 20.5811 27.0905 20.6419 27.0946 20.7042C27.0988 20.7666 27.0899 20.8291 27.0686 20.8879C27.0472 20.9466 27.0139 21.0003 26.9707 21.0455C26.9275 21.0907 26.8754 21.1264 26.8176 21.1503C26.7599 21.1743 26.6977 21.186 26.6352 21.1847C26.5727 21.1834 26.5111 21.1691 26.4544 21.1428C26.3977 21.1164 26.3471 21.0785 26.3059 21.0316C26.2646 20.9846 26.2335 20.9296 26.2147 20.87C25.9786 20.2618 25.696 19.6727 25.3691 19.108C25.2107 18.8442 25.0238 18.5985 24.8118 18.3754C24.5828 18.1394 24.3199 17.9389 24.0316 17.7805C23.6968 17.6069 23.3521 17.4529 22.9993 17.3194C22.5323 17.147 22.0808 16.9354 21.6494 16.687C21.4128 16.5393 21.1926 16.3668 20.9925 16.1725L21.0095 16.3088C21.0545 16.6671 21.0963 17.0359 21.1199 17.411C21.1378 17.6746 21.1421 17.939 21.1327 18.203C21.5502 18.4321 21.9595 18.6627 22.3353 18.8985C22.7747 19.1617 23.1793 19.4788 23.5397 19.8426C23.8776 20.2249 24.1507 20.6599 24.3481 21.1303C24.46 21.3784 24.5877 21.6191 24.7303 21.8509C24.9376 22.1526 25.1635 22.4411 25.4067 22.7146C25.6507 22.9909 25.8792 23.2805 26.091 23.5821C27.1173 23.5153 27.6841 23.4912 28.7085 24.0883C28.8116 24.1481 28.8866 24.2463 28.9172 24.3614C28.9478 24.4765 28.9314 24.599 28.8716 24.702C28.8118 24.8049 28.7135 24.88 28.5983 24.9105C28.4832 24.9411 28.3606 24.9247 28.2575 24.8649C27.7397 24.5383 27.1272 24.3946 26.5179 24.4567C26.6549 24.9484 26.7249 25.4563 26.7261 25.9667V25.9866C26.7261 26.1062 26.6786 26.2208 26.5941 26.3053C26.5095 26.3898 26.3948 26.4373 26.2752 26.4373C26.1556 26.4373 26.0409 26.3898 25.9563 26.3053C25.8717 26.2208 25.8242 26.1062 25.8242 25.9866C25.8438 25.3989 25.722 24.815 25.4691 24.284Z" fill="#613CF2"/>
<path fill-rule="evenodd" clip-rule="evenodd" d="M14.9254 1.11871H17.075C17.0874 0.818281 17.0945 0.528747 17.0945 0.254985C17.0932 0.187461 17.0656 0.123109 17.0176 0.0755281C16.9697 0.027947 16.9051 0.000863446 16.8375 0H15.1618C15.0942 0.000490209 15.0296 0.0275002 14.9818 0.0752027C14.934 0.122905 14.9068 0.187476 14.9062 0.254985C14.9062 0.532502 14.9134 0.821661 14.9254 1.11871Z" fill="#613CF2"/>
<path fill-rule="evenodd" clip-rule="evenodd" d="M15.0377 2.9694H16.9621C16.9851 2.64644 17.0076 2.32874 17.0272 2.01855H14.9727C14.9922 2.32874 15.0147 2.64719 15.0377 2.9694Z" fill="#613CF2"/>
<path fill-rule="evenodd" clip-rule="evenodd" d="M15.1621 4.81998H16.8385C16.8566 4.50116 16.8761 4.18158 16.8986 3.86914H15.1016C15.1234 4.18346 15.144 4.50116 15.1621 4.81998Z" fill="#613CF2"/>
<path fill-rule="evenodd" clip-rule="evenodd" d="M15.2242 6.66959H16.7786C16.7786 6.3534 16.7849 6.03645 16.7977 5.71875H15.2051C15.2164 6.03695 15.2227 6.3539 15.2242 6.66959Z" fill="#613CF2"/>
<path fill-rule="evenodd" clip-rule="evenodd" d="M16.9673 9.41992H15.0342C14.7068 11.4286 13.8857 13.1978 12.0571 14.3071C12.0588 14.4385 12.0577 14.5674 12.0537 14.6939C12.0537 14.7093 12.0537 14.7247 12.0537 14.7397C12.0416 15.0634 12.0127 15.374 11.9785 15.6811C12.7349 15.3611 13.4533 14.9581 14.1206 14.4794C14.8744 13.9334 15.4359 13.366 15.5772 12.9251C15.606 12.8345 15.6629 12.7553 15.7398 12.6992C15.8166 12.643 15.9093 12.6128 16.0045 12.6128C16.0997 12.6128 16.1924 12.643 16.2692 12.6992C16.346 12.7553 16.4029 12.8345 16.4318 12.9251C16.5731 13.366 17.1349 13.933 17.8884 14.4787C18.5556 14.9574 19.274 15.3604 20.0304 15.6804C19.9951 15.3732 19.9662 15.0626 19.9553 14.7389C19.9553 14.7239 19.9534 14.7085 19.9553 14.6931C19.9513 14.5667 19.9501 14.4378 19.9519 14.3063C18.1169 13.1978 17.295 11.4283 16.9673 9.41992Z" fill="#613CF2"/>
<path fill-rule="evenodd" clip-rule="evenodd" d="M15.1484 8.52018H16.8531C16.8238 8.20674 16.8033 7.88979 16.7918 7.56934H15.2093C15.1973 7.88929 15.177 8.20624 15.1484 8.52018Z" fill="#613CF2"/>
</svg>
