<svg width="15" height="17" viewBox="0 0 15 17" fill="none" xmlns="http://www.w3.org/2000/svg">
<path d="M7.75 1C7.96875 1 8.0625 1.09375 8.0625 1.09375V6.96875C8.0625 7 7.9375 7.09375 7.75 7.09375H7.71875C7.53125 7.09375 7.4375 7 7.40625 7V1.09375C7.4375 1.0625 7.5625 1 7.75 1Z" fill="#EB3F3A" stroke="#EB3F3A" stroke-width="0.54" stroke-miterlimit="10"/>
<path d="M7.59375 16.3438C3.96875 16.3438 1 13.375 1 9.75C1 7.15625 2.34375 4.90625 4.5 3.8125C4.53125 3.8125 4.5625 3.78125 4.59375 3.78125C4.625 3.78125 4.625 3.78125 4.65625 3.78125C4.71875 3.8125 4.75 3.84375 4.78125 3.90625C4.8125 3.96875 4.8125 4.03125 4.78125 4.0625C4.75 4.125 4.71875 4.15625 4.65625 4.1875C2.65625 5.1875 1.40625 7.3125 1.40625 9.71875C1.40625 13.125 4.15625 15.875 7.5625 15.875C10.9688 15.875 13.7187 13.125 13.7187 9.71875C13.7187 7.3125 12.4688 5.21875 10.5 4.1875C10.4062 4.125 10.3438 4 10.4062 3.90625C10.4688 3.8125 10.5938 3.75 10.6875 3.8125C12.8125 4.90625 14.1562 7.15625 14.1562 9.71875C14.1875 13.4062 11.2188 16.3438 7.59375 16.3438Z" fill="#132A4F" stroke="#EB3F3A" stroke-width="0.54" stroke-miterlimit="10"/>
</svg>
