<svg width="43" height="48" viewBox="0 0 43 48" fill="none" xmlns="http://www.w3.org/2000/svg">
<path d="M34.8951 29.787C34.7806 29.7624 34.6673 29.7368 34.5523 29.7164C34.185 29.3758 33.8929 28.8998 33.6677 28.3308C33.1013 26.9048 32.9351 24.8775 32.9503 22.8638C32.9822 19.2381 33.6186 15.6459 33.6186 15.6459C33.6186 15.6459 33.6186 15.6459 33.6186 15.6449C33.6186 15.1427 33.6066 14.661 33.5878 14.1897C33.5815 14.0408 33.5716 13.8986 33.5642 13.7529C33.547 13.4347 33.5287 13.1212 33.501 12.8171C33.4869 12.6566 33.4712 12.5015 33.4561 12.3447C33.4284 12.0641 33.395 11.7903 33.3579 11.5233C33.3385 11.3734 33.3192 11.2234 33.2967 11.0771C33.256 10.8038 33.21 10.5363 33.1619 10.2761C33.1374 10.1565 33.118 10.0331 33.0945 9.91401C33.0208 9.55871 32.9425 9.21281 32.8578 8.88102C32.8526 8.869 32.8515 8.85646 32.8474 8.84235C32.7565 8.49437 32.6598 8.16467 32.5553 7.84646C32.5218 7.75136 32.49 7.66097 32.4571 7.56901C32.3855 7.34956 32.305 7.13324 32.2245 6.92633C32.1848 6.82235 32.143 6.71942 32.1012 6.62014C32.0249 6.43256 31.9408 6.24968 31.8583 6.07308C31.8144 5.97589 31.7705 5.87923 31.7245 5.78622C31.6336 5.60752 31.5427 5.4351 31.4512 5.26894C31.4073 5.19057 31.3645 5.11062 31.3217 5.03538C31.1983 4.82116 31.0656 4.61268 30.9371 4.41569C30.9251 4.39636 30.9136 4.37494 30.8984 4.35456C30.7516 4.1372 30.6006 3.93081 30.4496 3.73696C30.4047 3.68 30.3587 3.62671 30.3116 3.57289C30.2014 3.43704 30.0922 3.30537 29.9788 3.17997C29.9198 3.11779 29.8623 3.05875 29.8043 2.995C29.7014 2.88371 29.5953 2.77764 29.4882 2.6747C29.4291 2.61671 29.3706 2.56028 29.3116 2.50646C29.1992 2.40457 29.0879 2.30947 28.9746 2.21438C28.9197 2.1684 28.8643 2.12137 28.8105 2.07853C28.6678 1.96619 28.5236 1.85803 28.3779 1.75718C28.3554 1.7389 28.3298 1.71956 28.3084 1.70389C28.1401 1.58633 27.9687 1.47817 27.7979 1.37628C27.7488 1.34754 27.6991 1.32142 27.6511 1.29372C27.5298 1.22214 27.407 1.15578 27.29 1.09569C27.2257 1.06225 27.1646 1.03247 27.1024 1.00164C26.9922 0.948347 26.8861 0.897664 26.7779 0.849593C26.7137 0.821901 26.6525 0.795253 26.5893 0.769128C26.4791 0.722102 26.372 0.681347 26.2607 0.640591C26.2048 0.619169 26.1452 0.596701 26.0924 0.576323C25.9649 0.530343 25.8353 0.488542 25.7115 0.450922C25.677 0.440472 25.6399 0.427409 25.6075 0.418004C25.4492 0.370979 25.2961 0.330223 25.1451 0.292603C25.0939 0.280585 25.0479 0.27118 24.9993 0.26073C24.8964 0.237217 24.7929 0.21266 24.6942 0.193327C24.6362 0.182354 24.5777 0.170859 24.5228 0.161454C24.435 0.145256 24.3472 0.130626 24.2647 0.117564C24.2067 0.108159 24.1503 0.100321 24.0985 0.0940508C24.017 0.0830782 23.9345 0.0726283 23.8545 0.0642682C23.8007 0.0590432 23.7511 0.0522506 23.702 0.0470255C23.6184 0.0397105 23.5379 0.0318729 23.4579 0.0266478C23.4161 0.0245578 23.3754 0.0193327 23.3383 0.0172427C23.227 0.00992759 23.1251 0.0078376 23.0248 0.00313505C22.9788 0.00209004 22.9391 0.00209012 22.8931 0.00209012C22.844 0.00209012 22.7912 0.00104493 22.7432 0.00104493C22.4981 0.00104493 22.3022 0.0104502 22.1637 0.0224678C22.1444 0.0224678 22.1318 0.0235126 22.1167 0.0256026C22.0665 0.0287377 22.0268 0.0329177 21.9981 0.0360527C21.9871 0.0370977 21.9735 0.0381429 21.9662 0.040233C21.9385 0.041278 21.9223 0.044413 21.9223 0.044413C21.7797 0.0350079 21.6375 0.0292603 21.4975 0.0240352C21.3575 0.0282153 21.2169 0.0350078 21.0727 0.0423228C21.0727 0.0423228 21.0555 0.0412779 21.0288 0.0381429C21.0194 0.0370978 21.0064 0.0360528 20.998 0.0350078C20.9703 0.0318728 20.9275 0.0276928 20.8794 0.0240352C20.8663 0.0229902 20.8506 0.0229901 20.8324 0.0219451C20.6944 0.009405 20.4995 0 20.2545 0C20.2054 0 20.1505 0 20.0982 0C20.0554 0 20.0188 -7.57912e-08 19.9749 0.00104493C19.8751 0.00417997 19.768 0.00940499 19.6578 0.0151525C19.6248 0.0172426 19.5883 0.0203777 19.5538 0.0235128C19.4712 0.0287378 19.3855 0.0355303 19.2946 0.0459804C19.2476 0.0491154 19.1995 0.0553856 19.1536 0.0611332C19.0689 0.0705383 18.9843 0.0815108 18.8954 0.0930059C18.8442 0.100321 18.7935 0.108159 18.7413 0.115474C18.6483 0.129581 18.5563 0.145257 18.4607 0.163544C18.4105 0.172949 18.3599 0.180787 18.3087 0.190192C18.1974 0.21266 18.0882 0.238262 17.9716 0.26282C17.933 0.272225 17.8959 0.281108 17.8541 0.289468C17.6978 0.326043 17.5395 0.367844 17.3807 0.416959C17.3551 0.423229 17.3295 0.433157 17.3034 0.440472C17.1706 0.482272 17.0348 0.526163 16.8984 0.574233C16.8462 0.592521 16.7934 0.612899 16.7401 0.633276C16.6257 0.676122 16.5123 0.721057 16.3973 0.769128C16.3393 0.79264 16.2798 0.818243 16.2228 0.844891C16.1084 0.892961 15.995 0.948869 15.8801 1.00425C15.8231 1.03195 15.7646 1.05912 15.7076 1.08995C15.5822 1.15526 15.4526 1.22684 15.3252 1.30104C15.2834 1.32664 15.2395 1.34806 15.1966 1.37471C15.0252 1.47764 14.8528 1.58685 14.6793 1.7065C14.6631 1.71747 14.6475 1.73001 14.6323 1.74099C14.4792 1.8481 14.3272 1.96148 14.1762 2.08166C14.125 2.12137 14.0743 2.16526 14.0231 2.20602C13.9055 2.3032 13.7906 2.40405 13.6751 2.50802C13.6171 2.56237 13.5596 2.61723 13.5037 2.67052C13.3924 2.77555 13.2853 2.8858 13.1771 3.00022C13.1223 3.05822 13.0669 3.11674 13.0131 3.17579C12.8966 3.30432 12.7826 3.44017 12.6693 3.57864C12.6275 3.63089 12.5857 3.67844 12.5439 3.73278C12.3887 3.92872 12.2377 4.13511 12.0898 4.35404C12.0788 4.37023 12.0694 4.38852 12.059 4.40315C11.9242 4.60432 11.7956 4.81541 11.664 5.0359C11.6222 5.10853 11.5835 5.18691 11.5407 5.26267C11.4476 5.43301 11.3541 5.60752 11.2642 5.78831C11.2183 5.88132 11.1754 5.97485 11.1315 6.07099C11.049 6.25073 10.9675 6.43517 10.8854 6.62537C10.8457 6.72516 10.8029 6.82444 10.7642 6.92633C10.6827 7.13638 10.6038 7.35478 10.5286 7.57841C10.4988 7.66933 10.4643 7.75502 10.4366 7.84803C10.3316 8.16832 10.2323 8.50011 10.1419 8.84706C10.1388 8.86012 10.1346 8.87579 10.1325 8.88886C10.0479 9.2196 9.96739 9.56446 9.89685 9.91976C9.87438 10.0373 9.854 10.1596 9.83049 10.2772C9.78242 10.5374 9.7354 10.807 9.69359 11.0813C9.67113 11.226 9.65284 11.376 9.63246 11.5254C9.59693 11.7929 9.56297 12.0662 9.53737 12.3489C9.52012 12.5062 9.50549 12.6613 9.49138 12.8223C9.46683 13.1243 9.44436 13.4378 9.42712 13.7549C9.41876 13.9018 9.40883 14.0439 9.4036 14.1949C9.38427 14.6652 9.37173 15.1479 9.37173 15.649C9.37173 15.649 9.37173 15.649 9.37173 15.6501C9.37173 15.6501 10.0076 19.2433 10.04 22.868C10.0593 24.8822 9.8911 26.908 9.32366 28.337C9.09585 28.9055 8.80743 29.382 8.43906 29.7196C8.32045 29.742 8.20968 29.7666 8.09839 29.7932C7.49437 29.9333 5.52557 30.0994 3.53587 32.2203C2.32575 33.5114 1.10727 35.5236 0.184523 38.6957C0.101967 38.9815 0.0455364 39.2715 0.0204561 39.5651C-0.0620997 40.4409 0.106147 41.3275 0.508476 42.0878C2.50549 45.865 13.0089 47.0255 21.4996 47.0255C29.9903 47.0255 40.4963 45.865 42.4928 42.0873C42.892 41.3228 43.0602 40.4372 42.9808 39.5636C42.9432 39.2657 42.8878 38.9747 42.8063 38.6889C41.8846 35.5142 40.6661 33.5046 39.4571 32.2156C37.4668 30.0942 35.4959 29.9265 34.8951 29.787ZM12.1342 14.9896C12.1875 14.952 12.2455 14.9264 12.3066 14.916C12.4456 14.8924 12.5914 14.9447 12.733 15.0596C12.733 15.0596 12.733 15.0492 12.7361 15.0278C12.7853 14.5481 13.4238 9.16579 17.4538 9.53938L29.7735 15.881L30.7746 14.9175C30.8075 14.9238 30.843 14.9348 30.8733 14.9494C31.3091 15.1558 31.4988 16.1799 31.2877 17.3498C31.1283 18.2469 30.7782 18.9868 30.4078 19.3029C30.2578 19.4273 30.1047 19.4868 29.961 19.4623C29.8795 19.4482 29.8017 19.4079 29.7353 19.3447C28.9129 21.9003 27.3433 24.4464 25.3614 25.9779C24.2041 26.8688 22.9083 27.4138 21.5367 27.4138C20.1578 27.4138 18.8536 26.8615 17.6916 25.9596C15.7202 24.4276 14.1563 21.8898 13.3391 19.3447C13.2717 19.4058 13.1991 19.4466 13.1155 19.4623C12.9483 19.4921 12.7675 19.4074 12.5972 19.2355C12.2523 18.8886 11.9357 18.1884 11.7847 17.3498C11.5872 16.2447 11.7444 15.2692 12.1342 14.9896ZM13.0904 42.5988C12.9133 42.7461 12.6923 42.8271 12.4597 42.8271H11.3687C10.8212 42.8271 10.376 42.3814 10.376 41.8344L10.3796 41.7644C10.4162 41.2518 10.8504 40.8421 11.3693 40.8421H12.4597C12.571 40.8421 12.6808 40.8604 12.7858 40.8975C12.8516 40.8787 12.8725 40.8636 12.8725 40.8636C12.9943 40.6483 12.9943 39.7511 12.9943 39.3206C12.9943 38.4538 12.7769 37.4051 12.3955 36.4291C12.198 36.3167 12.0386 36.1469 11.9404 35.9416C11.2784 34.5569 10.3791 33.6619 9.64761 33.6619C8.89991 33.6619 7.95574 34.6296 7.29739 36.068C7.18975 36.3026 7.00113 36.4933 6.76861 36.6067C6.4248 37.5394 6.23566 38.4987 6.23566 39.3201C6.23566 39.6822 6.23565 40.642 6.37412 40.8672C6.37569 40.8672 6.40651 40.886 6.49273 40.9069C6.60559 40.8641 6.72681 40.8416 6.84855 40.8416H7.94163C8.44637 40.8416 8.86804 41.2225 8.92603 41.7184L8.93178 41.7294L8.93387 41.7947C8.93387 42.3809 8.4887 42.8266 7.94216 42.8266H6.84908C6.63224 42.8266 6.42271 42.754 6.25029 42.6218C5.62641 42.5047 5.18594 42.2294 4.90693 41.7811C4.56991 41.2387 4.50825 40.5271 4.50825 39.3201C4.50825 38.261 4.75279 37.0425 5.19691 35.8778C5.1316 35.6286 5.15355 35.3679 5.26171 35.1338C5.72465 34.1222 6.31299 33.2559 6.96298 32.6294C7.32038 32.2845 7.70389 32.0081 8.10622 31.8059C8.25305 31.4621 8.5028 31.1737 8.81108 30.9893C8.97306 30.077 9.48407 29.1109 10.2292 28.3198C11.2554 27.2288 12.5444 26.629 13.8585 26.629H14.1197V26.6342C14.5743 26.6598 14.9369 27.0334 14.9369 27.4942C14.9369 27.9551 14.5743 28.3292 14.1197 28.3543V28.3574H14.0868C14.0811 28.3574 14.0764 28.3595 14.0717 28.3595C14.067 28.3595 14.0612 28.3574 14.0565 28.3574H13.8585C12.2403 28.3574 10.8995 29.8915 10.561 31.0812C10.7929 31.2536 10.9816 31.4872 11.1054 31.76C12.2215 32.2861 13.2074 33.3949 13.9625 34.9734C14.0889 35.2393 14.1051 35.5392 14.0126 35.813C14.4651 36.9782 14.7238 38.2505 14.7238 39.3196C14.7232 40.8186 14.7232 42.2351 13.0904 42.5988ZM21.4933 37.5477C21.4933 37.5477 15.0069 31.4135 13.9457 30.0571C13.7221 29.7671 13.5816 29.463 13.5434 29.1459V29.1448C13.5957 29.1255 13.7158 29.0837 13.8773 29.01C13.9426 28.9823 14.0163 28.9457 14.0884 28.905C14.7305 28.569 15.6731 27.8673 15.6731 26.631C15.6731 26.631 15.6731 26.631 15.6742 26.631C16.6858 27.6322 17.8133 28.429 19.0156 28.905C19.8239 29.2263 20.6678 29.404 21.5341 29.404C22.4014 29.404 23.2442 29.2263 24.0526 28.905C25.2444 28.4337 26.3579 27.6499 27.3663 26.6587C27.3736 26.6629 27.3804 26.6661 27.3877 26.6697C27.4112 28.2607 29.0101 28.9588 29.4422 29.1197C29.4432 29.125 29.4422 29.1338 29.4401 29.1453C29.4035 29.4609 29.2614 29.7666 29.0373 30.0566C27.9776 31.4114 21.4933 37.5477 21.4933 37.5477ZM32.4712 42.2576C32.4712 42.4379 32.3076 42.5842 32.1059 42.5842H30.1199V44.5692C30.1199 44.7714 29.9736 44.9354 29.7938 44.9354H27.8339C27.6537 44.9354 27.5079 44.7714 27.5079 44.5692V42.5842H25.5218C25.3202 42.5842 25.1561 42.4379 25.1561 42.2576V40.2982C25.1561 40.1174 25.3202 39.9716 25.5218 39.9716H27.5079V37.9856C27.5079 37.7834 27.6537 37.6204 27.8339 37.6204H29.7938C29.9736 37.6204 30.1199 37.7839 30.1199 37.9856V39.9716H32.1059C32.3081 39.9716 32.4712 40.1174 32.4712 40.2982V42.2576ZM34.8825 35.2681C34.3762 36.2133 33.3955 36.8006 32.3238 36.8006C31.8509 36.8006 31.3776 36.6814 30.958 36.4573C30.2751 36.092 29.7756 35.4828 29.5514 34.7419C29.3267 34.0005 29.4046 33.2162 29.7698 32.5338C30.1319 31.8566 30.7506 31.3576 31.4909 31.1366C31.2339 30.1287 30.5431 28.9217 29.3293 28.523L29.0383 28.4274C29.0143 28.4191 28.9892 28.4138 28.9662 28.4039L28.8732 28.3731L28.8789 28.3558C28.6182 28.2054 28.44 27.9263 28.44 27.6039C28.44 27.1232 28.8298 26.7335 29.3105 26.7335C29.344 26.7335 29.3758 26.7397 29.4088 26.7439L29.4135 26.7308L29.4746 26.7507C29.5451 26.7638 29.6115 26.7867 29.6742 26.816L29.8696 26.8798C31.1189 27.291 32.1556 28.2633 32.7899 29.6198C33.0234 30.1172 33.1854 30.636 33.2722 31.1627C33.4226 31.2139 33.5621 31.274 33.6943 31.3446C35.1025 32.0985 35.636 33.8583 34.8825 35.2681Z" fill="currentColor"/>
</svg>
