<svg width="24" height="23" viewBox="0 0 24 23" fill="none" xmlns="http://www.w3.org/2000/svg">
<path d="M19.5739 12.431L11.7737 12.9035C11.2601 12.9289 10.7862 12.6478 10.5957 12.2046C10.5148 11.9794 10.4754 11.7432 10.479 11.5058C10.3198 9.22233 10.15 6.93884 9.99081 4.61598C9.95455 4.51538 9.90462 4.41946 9.84224 4.33055C9.59164 3.84056 9.01577 3.56946 8.4414 3.67109C3.69674 4.62331 0.305829 8.50943 0.291039 13.0117C0.283737 13.3772 0.308582 13.7426 0.365327 14.1043C0.511633 15.3249 0.919343 16.5062 1.56453 17.5787C3.75873 21.3026 8.33981 23.2363 12.8086 22.3249C17.2774 21.4135 20.5612 17.8757 20.8686 13.6417C20.8742 13.331 20.7466 13.031 20.5137 12.8076C20.2809 12.5843 19.9619 12.4559 19.6269 12.4507L19.5739 12.431Z" fill="#F9F9FA"/>
<path opacity="0.6" d="M13.0772 0.39398C12.8238 0.383303 12.5762 0.466538 12.3891 0.625329C12.202 0.78412 12.0906 1.00543 12.0796 1.24044V1.37824L12.6845 9.73462C12.6833 10.0118 12.8081 10.2765 13.0283 10.4639C13.2485 10.6512 13.5436 10.7438 13.8413 10.7189L22.8406 10.1579C23.0913 10.1427 23.3252 10.0355 23.4905 9.86007C23.6558 9.68459 23.7389 9.45526 23.7214 9.2228C23.7266 9.19347 23.7266 9.16356 23.7214 9.13422C22.9101 4.22137 18.4335 0.545559 13.0772 0.39398Z" fill="white"/>
</svg>
