<svg width="22" height="21" viewBox="0 0 22 21" fill="none" xmlns="http://www.w3.org/2000/svg">
<path d="M17.9253 11.1892L10.6747 11.6284C10.1973 11.6521 9.75677 11.3907 9.57975 10.9788C9.50455 10.7695 9.46787 10.5499 9.47124 10.3292C9.32327 8.20663 9.16543 6.08405 9.01746 3.92486C8.98375 3.83135 8.93735 3.74219 8.87936 3.65954C8.64642 3.20408 8.11112 2.95208 7.57722 3.04655C3.16689 3.93167 0.0149042 7.54397 0.00115682 11.729C-0.00563123 12.0687 0.0174629 12.4084 0.0702095 12.7446C0.206207 13.8792 0.585189 14.9772 1.18492 15.9742C3.22451 19.4357 7.48279 21.2331 11.6367 20.3859C15.7906 19.5387 18.843 16.2503 19.1287 12.3146C19.134 12.0258 19.0154 11.7469 18.7989 11.5393C18.5825 11.3317 18.2859 11.2123 17.9746 11.2075L17.9253 11.1892Z" fill="#7BA7BF"/>
<path opacity="0.6" d="M11.887 0.000849425C11.6515 -0.00907521 11.4214 0.0682942 11.2474 0.215896C11.0735 0.363499 10.97 0.569211 10.9597 0.78767V0.915758L11.522 8.68333C11.5209 8.94094 11.6369 9.18706 11.8416 9.36121C12.0463 9.53537 12.3206 9.62142 12.5973 9.59824L20.9625 9.07674C21.1955 9.06266 21.4129 8.96305 21.5666 8.79993C21.7202 8.63682 21.7975 8.42365 21.7813 8.20757C21.786 8.18031 21.786 8.1525 21.7813 8.12523C21.0271 3.55855 16.866 0.141748 11.887 0.000849425Z" fill="#7BA7BF"/>
</svg>
