<svg width="24" height="23" viewBox="0 0 24 23" fill="none" xmlns="http://www.w3.org/2000/svg">
<path d="M19.5739 12.8763L11.7737 13.3488C11.2601 13.3742 10.7862 13.0931 10.5957 12.65C10.5148 12.4247 10.4754 12.1885 10.479 11.9511C10.3198 9.66764 10.15 7.38415 9.99081 5.0613C9.95455 4.96069 9.90462 4.86477 9.84224 4.77586C9.59164 4.28587 9.01577 4.01478 8.4414 4.11641C3.69674 5.06862 0.305829 8.95475 0.291039 13.457C0.283737 13.8225 0.308582 14.1879 0.365327 14.5496C0.511633 15.7702 0.919343 16.9515 1.56453 18.024C3.75873 21.7479 8.33981 23.6816 12.8086 22.7702C17.2774 21.8588 20.5612 18.321 20.8686 14.087C20.8742 13.7763 20.7466 13.4763 20.5137 13.2529C20.2809 13.0296 19.9619 12.9012 19.6269 12.896L19.5739 12.8763Z" fill="#FFC727"/>
<path opacity="0.6" d="M13.0772 0.839293C12.8238 0.828616 12.5762 0.91185 12.3891 1.07064C12.202 1.22943 12.0906 1.45074 12.0796 1.68576V1.82355L12.6845 10.1799C12.6833 10.4571 12.8081 10.7218 13.0283 10.9092C13.2485 11.0966 13.5436 11.1891 13.8413 11.1642L22.8406 10.6032C23.0913 10.588 23.3252 10.4809 23.4905 10.3054C23.6558 10.1299 23.7389 9.90057 23.7214 9.66812C23.7266 9.63878 23.7266 9.60887 23.7214 9.57953C22.9101 4.66668 18.4335 0.990871 13.0772 0.839293Z" fill="#FFC727"/>
</svg>
