<svg width="106" height="106" viewBox="0 0 106 106" fill="none" xmlns="http://www.w3.org/2000/svg">
<circle opacity="0.5" cx="53" cy="53" r="52.5" stroke="#A8B4BD"/>
<path fill-rule="evenodd" clip-rule="evenodd" d="M41.1875 49.5955V46C41.1875 39.4761 46.4761 34.1875 53 34.1875C59.5238 34.1875 64.8125 39.4761 64.8125 46V49.5955C66.7634 49.7413 68.0337 50.109 68.9623 51.0377C70.5 52.5755 70.5 55.0503 70.5 60C70.5 64.9497 70.5 67.4245 68.9623 68.9623C67.4245 70.5 64.9497 70.5 60 70.5H46C41.0502 70.5 38.5754 70.5 37.0377 68.9623C35.5 67.4245 35.5 64.9497 35.5 60C35.5 55.0503 35.5 52.5755 37.0377 51.0377C37.9663 50.109 39.2367 49.7413 41.1875 49.5955ZM43.8125 46C43.8125 40.9259 47.9259 36.8125 53 36.8125C58.0741 36.8125 62.1875 40.9259 62.1875 46V49.5063C61.5173 49.5 60.7901 49.5 60 49.5H46C45.2099 49.5 44.4828 49.5 43.8125 49.5063V46ZM56.5 60C56.5 61.9331 54.9331 63.5 53 63.5C51.0669 63.5 49.5 61.9331 49.5 60C49.5 58.0669 51.0669 56.5 53 56.5C54.9331 56.5 56.5 58.0669 56.5 60Z" fill="#1C274C"/>
</svg>
